<?xml version="1.0" standalone="no"?>
<!DOCTYPE svg PUBLIC "-//W3C//DTD SVG 20010904//EN"
 "http://www.w3.org/TR/2001/REC-SVG-20010904/DTD/svg10.dtd">
<svg version="1.0" xmlns="http://www.w3.org/2000/svg"
 width="1667.000000pt" height="1667.000000pt" viewBox="0 0 1667.000000 1667.000000"
 preserveAspectRatio="xMidYMid meet">

<g transform="translate(0.000000,1667.000000) scale(0.100000,-0.100000)"
fill="#000000" stroke="none">
<path d="M0 8335 l0 -8335 8335 0 8335 0 0 8335 0 8335 -8335 0 -8335 0 0
-8335z m8755 7985 c889 -54 1635 -213 2435 -520 233 -89 461 -190 454 -201 -3
-5 1 -7 8 -4 7 2 49 -13 93 -33 71 -34 76 -38 47 -39 -18 0 -28 3 -22 7 8 5 6
9 -5 14 -33 12 -36 7 -29 -56 6 -50 4 -60 -7 -56 -9 4 -14 -2 -14 -17 0 -13 3
-21 8 -18 4 2 7 -1 7 -6 0 -6 6 -11 14 -11 20 0 27 -13 14 -30 -8 -12 -9 -12
-4 3 6 18 -18 25 -29 7 -3 -5 -14 -10 -23 -10 -13 0 -14 2 -4 9 11 7 11 9 -2
14 -8 3 -17 3 -20 -1 -9 -14 11 -34 30 -30 11 2 28 -6 40 -18 12 -12 35 -29
53 -38 17 -9 31 -18 31 -21 0 -2 -40 15 -89 38 -48 23 -86 46 -83 51 3 5 0 6
-5 3 -6 -4 -51 12 -99 34 -386 179 -879 350 -1331 463 -1149 288 -2385 309
-3540 60 -326 -70 -952 -253 -1128 -329 -16 -8 -47 -21 -68 -30 -21 -9 -41
-14 -44 -11 -3 3 6 8 21 12 14 3 26 9 26 13 0 4 26 15 58 25 91 29 144 55 136
68 -5 8 -2 9 10 5 11 -4 15 -3 11 4 -4 6 -13 8 -21 5 -7 -3 -16 -1 -18 3 -3 5
-19 11 -36 15 -24 4 -30 10 -29 28 4 43 0 59 -13 52 -10 -6 -9 -3 0 8 8 9 19
16 25 14 7 -1 9 -1 4 1 -4 3 3 13 14 22 21 17 21 18 3 25 -10 4 -15 4 -11 0
11 -12 -13 -33 -31 -27 -13 4 -14 3 -3 -5 10 -7 0 -9 -33 -9 -40 2 -44 3 -29
14 9 7 26 10 36 7 12 -4 17 -2 13 4 -4 6 2 8 16 4 14 -3 19 -1 14 6 -8 13 29
26 45 16 8 -4 9 -3 5 4 -8 14 37 27 55 16 7 -4 9 -3 5 4 -10 16 321 122 649
207 465 120 1024 206 1520 234 207 12 687 12 870 1z m-3107 -644 c7 -1 17 -7
24 -14 8 -8 4 -13 -18 -18 -16 -4 -35 -11 -41 -17 -9 -6 -13 -6 -13 1 0 6 6
13 13 15 11 5 -17 11 -35 8 -5 0 -8 4 -8 9 0 6 11 8 25 4 23 -6 36 8 18 19 -5
2 -1 2 7 -1 8 -2 21 -5 28 -6z m-218 -140 c0 -2 -7 -7 -16 -10 -8 -3 -12 -2
-9 4 6 10 25 14 25 6z m6485 -64 c-3 -3 -11 0 -18 7 -9 10 -8 11 6 5 10 -3 15
-9 12 -12z m-3235 -62 c860 -48 1651 -229 2400 -550 162 -69 395 -183 361
-176 -14 3 -32 0 -40 -7 -14 -10 -14 -10 -3 4 10 14 10 18 -4 23 -22 8 -40 -4
-23 -15 11 -7 11 -9 1 -9 -7 0 -20 7 -29 15 -8 9 -18 13 -21 10 -4 -4 8 -19
26 -35 26 -22 29 -29 17 -34 -9 -3 -13 -2 -10 3 3 5 0 13 -6 17 -8 5 -9 3 -4
-6 5 -9 1 -11 -16 -6 -13 3 -18 3 -11 0 6 -3 10 -10 7 -15 -4 -5 1 -6 9 -3 8
3 19 -3 25 -15 15 -27 13 -40 -2 -21 -7 8 -19 16 -27 18 -8 2 -80 32 -160 67
-737 325 -1481 513 -2300 581 -246 21 -823 24 -1035 5 -648 -55 -1158 -156
-1695 -334 -124 -41 -234 -78 -244 -83 -14 -5 -17 -4 -12 4 4 7 2 12 -5 12 -7
0 -4 7 7 16 18 15 18 15 -11 9 -22 -4 -26 -3 -15 5 8 5 27 7 42 4 14 -3 29 0
33 5 3 6 0 9 -8 5 -8 -3 -14 1 -14 9 0 9 7 12 20 9 14 -4 18 -2 12 7 -5 8 -18
11 -37 7 -18 -3 -27 -2 -23 4 3 6 12 10 19 10 7 0 21 7 32 16 14 11 15 14 3
11 -9 -3 -22 -2 -28 3 -16 9 324 123 569 190 708 194 1493 279 2200 240z
m3210 -176 c0 -2 -9 0 -20 6 -11 6 -20 13 -20 16 0 2 9 0 20 -6 11 -6 20 -13
20 -16z m-6005 -264 c-3 -5 -11 -10 -16 -10 -6 0 -7 5 -4 10 3 6 11 10 16 10
6 0 7 -4 4 -10z m-75 -30 c-19 -11 -42 -19 -50 -19 -8 0 3 8 25 18 52 25 70
26 25 1z m55 -10 c3 -6 -1 -7 -9 -4 -18 7 -21 14 -7 14 6 0 13 -4 16 -10z m5
-89 c0 -5 -7 -11 -14 -14 -10 -4 -13 -1 -9 9 6 15 23 19 23 5z m7115 -10 c3
-5 2 -12 -3 -15 -5 -3 -9 1 -9 9 0 17 3 19 12 6z m188 -140 c32 -23 55 -47 51
-53 -4 -7 -9 -6 -15 3 -6 10 -8 7 -6 -9 2 -26 6 -27 22 -5 11 15 15 15 29 4 9
-7 13 -18 9 -24 -3 -5 -1 -7 4 -4 13 8 65 -31 58 -44 -4 -5 0 -7 7 -4 24 9
345 -271 607 -529 538 -531 958 -1074 1328 -1721 158 -276 364 -696 344 -703
-6 -2 -11 -8 -11 -13 0 -4 7 -5 17 -2 11 4 14 3 9 -5 -4 -7 -2 -12 4 -12 6 0
8 -5 5 -10 -4 -6 -11 -7 -17 -4 -7 5 -8 2 -4 -5 5 -7 14 -10 21 -7 21 8 27
-25 8 -46 -14 -16 -18 -49 -22 -223 -4 -134 -3 -205 4 -205 6 0 3 -5 -5 -10
-13 -8 -12 -10 4 -10 15 0 17 -5 12 -35 -4 -21 -2 -44 5 -57 12 -22 21 -68 14
-68 -2 0 -11 24 -21 53 -9 28 -47 129 -84 222 -382 963 -951 1843 -1660 2570
-167 171 -344 341 -463 445 -71 62 -94 87 -86 96 7 8 6 15 -2 20 -7 4 -9 3 -5
-4 3 -6 1 -14 -5 -17 -15 -10 -72 46 -59 59 5 5 10 14 10 20 0 5 -6 1 -14 -10
-14 -19 -15 -19 -40 5 -14 13 -23 28 -19 34 3 6 1 7 -5 3 -14 -8 -144 93 -136
106 3 4 10 6 15 2 5 -3 6 -10 3 -16 -4 -6 -1 -8 7 -6 8 3 13 10 12 16 -2 6 6
14 17 17 18 6 20 14 17 88 -3 73 -5 82 -22 79 -17 -3 -17 -2 -2 13 9 9 23 13
29 10 7 -4 2 3 -12 14 -28 23 -40 26 -40 11 0 -5 -5 -10 -12 -10 -9 0 -9 3 0
12 14 14 16 32 3 23 -6 -3 -15 4 -22 16 -9 17 -13 19 -20 8 -5 -8 -9 -9 -9 -3
0 24 14 22 49 -5 20 -15 62 -47 94 -70z m-179 -147 c3 -8 2 -12 -4 -9 -6 3
-10 10 -10 16 0 14 7 11 14 -7z m31 6 c-3 -5 -1 -10 5 -10 7 0 10 -6 7 -14 -3
-7 0 -20 6 -27 7 -7 2 -5 -10 4 -11 10 -20 26 -18 35 5 23 4 22 11 22 3 0 2
-4 -1 -10z m-430 -566 c41 -31 72 -61 68 -67 -3 -6 -1 -7 6 -3 15 10 43 -13
34 -27 -3 -5 -1 -7 4 -4 13 8 89 -51 85 -65 -1 -5 2 -7 7 -4 14 9 289 -231
485 -423 579 -570 1022 -1176 1365 -1871 51 -102 96 -193 102 -203 5 -10 7
-28 4 -40 -4 -14 -3 -18 3 -9 6 9 12 6 21 -14 11 -26 11 -26 -6 -13 -13 9 -12
6 3 -11 22 -26 44 -63 44 -75 0 -4 -12 -4 -27 0 -23 5 -26 4 -15 -6 14 -15 16
-71 2 -85 -6 -6 -5 -15 1 -24 9 -12 10 -11 4 5 -3 11 -3 16 2 12 11 -12 12
-66 2 -73 -5 -3 -2 -19 7 -36 9 -16 11 -27 5 -24 -16 10 -13 -14 5 -49 16 -31
30 -84 19 -73 -4 3 -7 12 -9 20 -1 7 -4 18 -8 23 -20 32 -67 168 -62 177 4 6
3 8 -2 5 -6 -3 -23 24 -39 61 -237 558 -630 1195 -1038 1685 -222 266 -516
570 -762 786 -72 63 -129 118 -127 122 1 5 -2 8 -7 7 -15 -5 -72 43 -65 54 4
7 3 8 -4 4 -6 -4 -37 14 -69 40 -72 57 -84 70 -57 56 12 -6 25 -8 29 -4 5 4 5
2 2 -4 -3 -6 0 -11 8 -11 10 0 12 4 5 12 -5 7 -7 14 -4 17 3 3 0 9 -7 14 -8 4
-10 3 -5 -4 4 -7 2 -12 -4 -12 -17 0 -24 29 -11 44 9 11 9 19 -1 35 -16 26 -1
42 18 17 8 -11 14 -16 14 -11 0 11 -41 55 -51 55 -4 0 -6 -15 -3 -32 2 -18 1
-26 -3 -18 -3 8 -11 18 -17 22 -7 5 -6 8 4 8 13 0 13 1 0 10 -10 6 -11 10 -2
10 13 0 -13 30 -44 50 -16 10 -16 11 -2 6 10 -3 51 -31 93 -62z m-49 -56 c11
-18 12 -48 2 -42 -5 4 -7 12 -4 20 3 7 -3 18 -12 23 -9 6 -12 11 -5 11 6 0 15
-6 19 -12z m-65 -15 c13 -16 12 -17 -3 -4 -17 13 -22 21 -14 21 2 0 10 -8 17
-17z m42 4 c4 3 6 -5 5 -20 -1 -14 -6 -23 -11 -20 -4 3 -6 8 -3 11 3 3 -2 15
-11 26 -14 15 -14 18 -2 8 9 -6 19 -9 22 -5z m-5273 -1428 c54 -12 113 -51
143 -93 15 -22 16 -27 4 -17 -19 15 -22 9 -7 -19 6 -11 -11 2 -38 29 -60 60
-136 91 -230 92 -49 1 -60 3 -42 9 36 12 118 11 170 -1z m-326 -67 c-63 -46
-167 -163 -219 -246 -50 -80 -59 -118 -10 -44 33 49 151 175 179 190 10 6 -3
-16 -29 -48 -26 -33 -51 -58 -56 -57 -9 3 -70 -71 -95 -117 -10 -19 -23 -39
-29 -43 -6 -6 -6 -7 2 -5 6 2 35 38 63 82 28 43 54 76 57 73 2 -3 -8 -25 -24
-49 -46 -67 -96 -159 -90 -164 3 -3 13 6 23 21 10 15 23 24 31 21 8 -3 12 -2
8 3 -7 13 49 58 109 87 28 14 42 18 32 10 -11 -9 -32 -27 -48 -41 -16 -14 -33
-23 -38 -20 -5 3 -12 0 -16 -6 -5 -8 -3 -9 7 -4 12 8 12 6 0 -8 -15 -19 -26
-23 -15 -5 4 7 3 8 -5 4 -6 -4 -9 -12 -5 -17 8 -14 -35 -59 -51 -53 -7 3 -16
1 -20 -5 -3 -7 0 -8 9 -5 23 9 20 -2 -15 -52 -47 -69 -76 -139 -114 -280 -20
-70 -51 -166 -69 -211 l-33 -83 96 95 c159 157 321 274 520 376 45 23 81 43
81 45 0 2 -13 2 -30 0 -16 -2 -30 -2 -30 0 0 2 21 14 48 26 82 38 161 97 203
153 23 30 43 55 45 55 1 0 6 -5 10 -12 4 -6 3 -8 -3 -5 -6 4 -14 0 -17 -9 -3
-8 -2 -12 4 -9 6 3 10 -1 10 -9 0 -9 -4 -16 -10 -16 -5 0 -7 -6 -4 -14 3 -8
-11 -32 -31 -55 -21 -23 -35 -41 -32 -41 2 0 29 11 60 24 30 14 58 22 63 18 4
-4 4 -1 0 6 -5 8 0 12 16 12 18 0 20 2 8 10 -14 9 -13 11 9 14 19 2 23 16 5
17 -28 1 13 16 125 45 409 106 849 106 1272 -1 202 -52 323 -107 312 -142 -5
-13 25 -25 40 -16 7 3 9 2 4 -2 -7 -8 255 -147 280 -148 7 0 10 -3 8 -7 -5 -8
45 -33 53 -26 2 3 14 1 26 -5 19 -9 19 -9 4 4 -10 8 -16 17 -13 21 3 3 -1 2
-7 -4 -19 -16 -32 -11 -17 7 12 15 12 16 -6 9 -16 -6 -17 -5 -8 5 25 25 282
-168 428 -323 78 -83 86 -89 70 -53 -38 85 -66 170 -90 268 -27 110 -74 218
-124 287 -17 23 -28 47 -25 51 3 5 1 8 -4 7 -5 -2 -42 28 -82 66 -72 67 -65
72 17 13 23 -16 40 -35 36 -41 -3 -6 -2 -8 2 -3 5 4 29 -12 53 -35 49 -47 49
-46 9 31 -17 32 -23 51 -15 49 7 -3 14 -10 14 -16 3 -24 4 -26 16 -14 9 9 15
9 27 -1 26 -21 -68 144 -121 213 -28 36 -42 57 -31 47 11 -10 47 -55 79 -100
32 -45 62 -85 67 -88 5 -3 8 -9 8 -13 -3 -20 0 -26 9 -21 11 7 -15 65 -34 77
-6 4 -7 8 -3 8 11 0 -72 106 -111 144 -17 15 -35 25 -40 22 -6 -4 -13 -2 -16
3 -4 5 -2 13 4 16 30 18 166 -133 229 -255 22 -42 74 -176 115 -298 100 -292
181 -453 328 -645 33 -43 58 -81 55 -83 -3 -3 -40 33 -82 80 -67 73 -104 120
-207 266 -29 41 27 -84 69 -154 43 -71 164 -196 220 -225 21 -11 34 -20 29
-21 -17 0 -120 62 -167 101 -25 21 -66 64 -90 96 -23 32 -47 63 -52 68 -16 17
35 -78 64 -121 16 -23 26 -44 23 -46 -2 -3 9 -34 25 -68 19 -41 27 -68 21 -75
-6 -7 4 -42 25 -95 87 -218 120 -407 112 -635 -8 -211 -30 -306 -139 -605 -62
-171 -226 -390 -413 -555 -54 -47 -69 -56 -77 -44 -8 11 -9 10 -4 -3 5 -17
-34 -51 -134 -117 -37 -24 -14 -2 36 35 41 31 23 41 -23 13 -21 -13 -40 -26
-43 -30 -8 -12 -63 -32 -79 -30 -8 1 -10 -2 -5 -10 4 -8 3 -10 -5 -5 -14 9 -5
26 15 26 8 0 12 5 9 10 -4 7 -14 7 -28 0 -18 -9 -17 -7 3 7 302 215 504 426
650 678 47 81 54 89 34 40 -3 -8 -1 -15 5 -15 15 0 63 99 95 195 94 286 99
583 15 865 -33 113 -87 240 -101 240 -5 0 -6 5 -3 10 3 6 1 10 -5 10 -6 0 -8
5 -5 10 3 6 2 10 -3 10 -5 0 -30 35 -54 78 -299 513 -868 870 -1549 972 -890
132 -1800 -224 -2248 -880 -114 -166 -205 -381 -248 -580 -25 -120 -25 -429 0
-550 77 -365 258 -664 580 -959 32 -29 56 -55 54 -57 -2 -2 -13 5 -24 16 -12
10 -23 17 -26 14 -3 -3 -14 6 -25 20 -11 15 -24 26 -29 26 -13 0 -170 163
-235 245 -155 195 -260 417 -318 670 -31 133 -38 376 -15 520 28 183 91 367
173 515 20 36 37 70 38 77 1 6 15 31 32 55 16 24 37 59 46 78 16 34 16 34 -1
10 -39 -55 -119 -132 -167 -161 l-51 -30 51 48 c75 70 117 127 169 231 48 95
56 135 14 65 -32 -53 -129 -179 -179 -233 -23 -25 -37 -37 -30 -27 7 9 10 17
7 17 -3 0 24 44 60 98 98 148 175 315 253 546 38 114 85 240 104 280 66 137
174 255 296 325 69 39 85 40 34 3z m2760 -30 c3 -5 -1 -9 -9 -9 -8 0 -12 4 -9
9 3 4 7 8 9 8 2 0 6 -4 9 -8z m133 -240 c38 -48 53 -76 46 -83 -6 -6 -10 -5
-10 4 0 17 -63 110 -70 103 -3 -3 5 -19 17 -36 12 -17 20 -33 18 -36 -3 -2
-21 21 -42 52 -20 31 -29 51 -21 44 8 -7 15 -8 15 -2 0 15 -26 33 -35 24 -5
-4 -5 -2 -1 5 4 7 -2 18 -14 25 -11 7 -20 17 -20 22 0 16 58 -44 117 -122z
m-668 -96 c26 -33 104 -110 131 -129 l25 -17 -30 14 c-62 29 -166 150 -164
190 0 17 3 15 11 -8 6 -16 18 -38 27 -50z m-1704 -36 c-3 -5 -12 -10 -18 -10
-7 0 -6 4 3 10 19 12 23 12 15 0z m1170 -109 c196 -35 444 -109 491 -147 18
-14 18 -14 -3 -4 -20 9 -22 8 -16 -7 4 -10 11 -22 17 -26 6 -5 2 -6 -9 -2 -91
34 -244 78 -339 100 -348 78 -782 72 -1111 -16 -100 -26 -124 -31 -101 -21 17
7 17 9 2 24 -15 15 -12 18 37 32 121 35 271 67 378 81 166 21 496 14 654 -14z
m-2205 -42 c-92 -11 -186 -39 -263 -78 -67 -34 -57 -14 12 27 79 46 138 61
236 60 l90 -1 -75 -8z m3882 -13 c37 -13 89 -40 116 -60 60 -44 182 -171 182
-190 0 -9 19 -16 58 -21 87 -10 144 -40 207 -106 124 -130 139 -286 39 -398
-55 -61 -118 -89 -215 -96 l-74 -5 73 15 c215 41 321 227 219 381 -57 86 -147
161 -228 189 -56 20 -60 19 -48 -12 15 -40 8 -151 -11 -168 -42 -38 -100 -35
-100 6 0 19 34 39 66 39 29 0 13 -19 -18 -22 -22 -2 -34 -9 -36 -20 -7 -36 67
-10 86 31 28 59 5 161 -36 161 -14 0 -15 2 -3 9 12 8 6 20 -30 67 -89 116
-239 193 -417 214 l-67 7 85 1 c66 1 100 -4 152 -22z m-843 -266 c16 -8 20
-14 12 -20 -9 -5 -8 -9 4 -13 9 -4 13 -3 10 3 -31 50 165 -102 278 -214 174
-175 317 -409 275 -451 -3 -3 -24 27 -46 68 -23 41 -74 119 -115 173 -122 164
-239 273 -467 437 -22 15 -22 16 -2 7 18 -9 22 -8 22 5 0 10 -5 13 -12 9 -7
-4 -10 -4 -6 1 4 4 0 15 -10 23 -15 12 -14 12 8 0 14 -8 36 -21 49 -28z
m-3424 -21 c27 -11 8 -10 -40 1 -28 6 -44 5 -55 -3 -13 -11 -13 -10 -1 6 14
18 45 17 96 -4z m-205 -3 c0 -2 -23 -18 -50 -36 -156 -100 -217 -267 -145
-399 16 -29 45 -67 65 -83 19 -17 26 -25 15 -20 -112 58 -158 215 -100 340 30
65 113 154 168 181 45 22 47 23 47 17z m4592 -96 c-9 -21 -18 -35 -20 -30 -3
9 25 70 33 70 2 0 -4 -18 -13 -40z m-4404 -56 c27 -19 28 -40 3 -54 -23 -12
-76 4 -66 20 4 7 12 7 25 0 10 -5 23 -10 29 -10 18 0 12 30 -6 36 -10 3 -27 9
-38 14 -18 8 -18 9 5 9 14 1 36 -6 48 -15z m139 -43 c-5 -58 -29 -116 -53
-125 -6 -2 1 19 17 47 19 34 29 67 29 95 0 23 3 42 6 42 4 0 4 -27 1 -59z
m4249 -28 c2 -18 21 -56 40 -85 32 -48 33 -50 9 -28 -39 35 -65 97 -63 150 0
25 2 34 5 20 2 -14 6 -39 9 -57z m302 12 c54 -60 51 -127 -7 -172 -29 -22 -41
-13 -16 12 14 13 25 29 25 35 0 6 5 8 10 5 6 -4 10 11 10 37 0 24 -4 38 -8 31
-4 -7 -17 7 -35 38 -32 57 -22 64 21 14z m-1700 3 c16 -16 15 -77 -3 -108 -14
-25 -15 -24 -10 14 2 21 6 41 9 44 3 3 1 11 -5 19 -9 10 -8 13 2 14 8 0 1 7
-16 14 -24 11 -26 14 -9 15 11 0 25 -5 32 -12z m-213 -95 c-1 -10 -8 -17 -16
-15 -9 2 -9 -1 -2 -10 5 -7 9 -32 9 -55 -1 -32 2 -43 14 -44 8 -1 4 -5 -10 -9
-19 -6 -20 -8 -6 -9 15 -1 16 -4 7 -15 -7 -8 -8 -16 -4 -18 10 -6 -5 -3 -32 5
-27 9 -88 -82 -234 -347 l-32 -58 113 7 c74 4 123 3 141 -4 16 -6 26 -7 23 -2
-3 5 0 11 7 14 11 4 13 -7 12 -46 -1 -29 3 -55 7 -58 12 -8 -226 -102 -332
-131 l-85 -23 -68 -130 c-138 -264 -194 -363 -275 -484 -94 -141 -190 -263
-204 -259 -5 2 -8 6 -7 8 1 3 -3 14 -9 26 -9 16 -8 21 3 21 7 0 11 -7 7 -15
-4 -11 -1 -13 8 -7 10 6 12 4 7 -9 -4 -11 -3 -15 4 -11 6 4 7 14 3 24 -4 9 -6
26 -6 37 1 12 -5 27 -13 34 -10 8 -15 9 -15 2 0 -6 5 -14 10 -17 6 -3 10 -12
9 -18 0 -9 -2 -8 -6 1 -2 6 -8 10 -12 7 -19 -11 -4 33 25 75 17 25 53 86 81
135 50 90 283 548 283 556 0 3 -17 6 -37 7 -21 2 -45 10 -55 19 -26 23 -23 77
5 104 27 25 118 72 172 89 35 10 45 21 80 83 66 116 157 258 213 328 l52 67
-43 6 c-55 8 -245 -9 -322 -30 -218 -58 -391 -191 -419 -320 -6 -27 -3 -35 21
-54 24 -19 37 -21 89 -17 36 2 86 16 123 32 l62 28 -6 39 c-6 34 -4 39 20 48
38 15 87 12 113 -6 16 -11 22 -25 22 -53 0 -33 -7 -45 -41 -76 -91 -82 -255
-130 -362 -106 -30 6 -62 20 -72 30 -15 18 -15 19 2 17 12 -1 17 5 15 17 -2
10 2 24 8 32 8 9 7 17 -2 26 -7 8 -14 28 -15 44 -2 23 0 27 8 15 8 -12 9 -10
7 10 -2 14 -9 24 -15 23 -6 -1 -17 5 -25 15 -12 15 -11 16 5 3 18 -14 24 -3 7
17 -7 9 -7 9 2 2 21 -18 29 -11 13 13 -13 21 -13 25 1 45 8 12 20 20 25 17 5
-3 6 1 3 9 -9 23 120 122 231 176 187 91 385 131 550 111 l88 -11 36 30 c20
16 37 29 38 30 1 0 0 -8 -2 -17z m-2736 -60 c-19 -22 -72 -43 -106 -42 -21 0
-13 6 35 23 35 13 66 27 69 30 13 13 15 5 2 -11z m4534 -28 c54 -12 57 -14 24
-14 -36 -1 -107 22 -107 34 0 3 5 3 10 0 6 -3 38 -12 73 -20z m-1566 -91 c72
-59 104 -145 83 -223 -12 -44 -79 -134 -120 -160 -23 -14 -24 -14 -13 0 7 9
10 19 6 23 -4 4 0 4 10 0 13 -5 16 -2 11 10 -3 9 -10 14 -14 11 -5 -3 -11 -1
-15 5 -3 5 1 10 10 10 9 0 14 4 11 9 -4 5 -7 27 -8 50 -1 22 -5 38 -10 35 -4
-3 -3 7 3 23 6 15 12 42 14 58 2 17 1 24 -2 17 -2 -6 -9 -9 -14 -6 -6 3 -5 11
2 20 6 8 9 23 6 34 -3 11 -1 20 4 20 6 0 8 12 7 28 -2 19 1 26 12 24 8 -1 2 9
-13 23 -43 38 -20 30 30 -11z m1576 -91 c-7 -2 -19 -2 -25 0 -7 3 -2 5 12 5
14 0 19 -2 13 -5z m-550 -118 c-3 -9 -8 -14 -10 -11 -3 3 -2 9 2 15 9 16 15
13 8 -4z m-2223 -165 c0 -5 -2 -10 -4 -10 -3 0 -8 5 -11 10 -3 6 -1 10 4 10 6
0 11 -4 11 -10z m1213 -92 c58 -29 125 -102 155 -166 20 -44 27 -79 31 -152
l6 -94 77 -19 77 -19 -3 -34 c-1 -18 2 -36 8 -39 6 -3 -3 -3 -21 0 -18 2 -61
7 -97 11 l-64 7 -12 -39 c-31 -97 -132 -265 -192 -322 l-24 -22 1 32 c2 24 7
33 18 32 9 -1 14 2 11 7 -3 5 -16 7 -30 5 -14 -3 -22 -1 -19 5 4 5 10 7 14 4
5 -2 17 5 27 17 19 21 19 21 -1 10 -18 -9 -20 -7 -21 24 0 23 2 30 8 22 6 -9
8 -7 5 7 -2 11 -9 19 -15 17 -9 -1 -9 3 -3 15 17 31 81 184 81 193 0 6 -21 10
-47 10 -27 0 -43 4 -36 8 6 4 13 21 16 39 4 24 1 33 -11 36 -10 3 11 5 46 6
l62 1 0 58 c0 70 -11 110 -47 170 -15 26 -26 51 -25 55 1 5 -1 6 -5 4 -5 -3
-17 2 -28 10 -19 15 -19 15 5 9 23 -7 24 -6 7 8 -18 14 -18 14 0 20 10 3 6 4
-9 2 -15 -2 -25 1 -22 5 3 5 12 9 21 9 9 0 13 3 10 7 -4 3 -1 13 6 21 10 13 9
15 -6 9 -13 -5 -17 -3 -14 5 2 7 -3 19 -12 26 -14 11 -13 12 9 6 14 -4 42 -15
63 -26z m-974 -222 c23 -21 27 -56 10 -87 -10 -19 -94 -79 -111 -79 -4 0 -13
19 -20 41 l-12 42 -75 -6 c-59 -4 -69 -2 -47 5 21 8 25 13 15 19 -12 7 -11 9
1 9 13 0 13 1 0 10 -13 9 -13 10 0 11 10 0 8 3 -5 9 l-20 9 20 0 c16 1 17 3 6
10 -11 7 -4 11 25 16 21 4 44 8 49 11 6 2 40 2 77 1 48 -2 72 -8 87 -21z
m3315 -20 c-16 -12 -44 -36 -61 -54 l-33 -33 0 25 c0 30 29 62 73 81 44 18 57
6 21 -19z m184 5 c16 -11 32 -32 34 -45 5 -24 4 -24 -46 11 -27 19 -63 37 -78
40 -15 3 -25 10 -22 15 10 16 80 2 112 -21z m-128 -66 c0 -8 -9 -15 -20 -15
-16 0 -20 -7 -20 -34 0 -26 5 -36 20 -41 11 -3 20 -11 20 -17 0 -5 -9 -12 -20
-15 -16 -4 -20 -14 -20 -49 0 -32 -4 -44 -15 -44 -12 0 -15 19 -15 115 l0 115
35 0 c24 0 35 -5 35 -15z m87 -102 c2 -68 -1 -113 -7 -113 -6 0 -10 15 -10 34
0 33 -21 66 -41 66 -18 0 -8 17 17 28 20 10 25 18 22 39 -2 17 -10 29 -23 33
-35 9 -29 32 7 28 l33 -3 2 -112z m-252 3 c0 -54 -4 -91 -9 -86 -14 14 -7 180
7 180 1 0 2 -42 2 -94z m-2482 -22 c-7 -3 -9 -12 -6 -20 3 -8 -1 -14 -8 -14
-11 0 -11 -3 1 -10 10 -6 11 -10 3 -10 -20 0 -15 -20 5 -21 9 0 -19 -11 -63
-24 -133 -40 -291 -124 -373 -200 -180 -167 -258 -395 -157 -461 39 -25 134
-21 218 9 82 30 201 100 293 174 36 29 70 53 74 53 4 0 10 -9 13 -20 3 -13 0
-20 -8 -20 -8 0 -17 -5 -21 -12 -5 -8 -2 -9 9 -5 20 7 22 -6 6 -35 -10 -18 -9
-20 6 -15 11 5 15 3 12 -5 -2 -7 -11 -12 -20 -12 -9 1 -14 -2 -11 -7 7 -12
-149 -112 -240 -155 -182 -83 -348 -85 -423 -3 -60 66 -71 177 -29 298 94 270
299 433 636 505 65 14 106 19 83 10z m2580 -135 c30 -22 36 -30 24 -35 -18 -7
-66 16 -88 42 -8 11 -16 32 -17 48 l-2 29 22 -28 c11 -15 39 -40 61 -56z m219
7 c-23 -25 -90 -56 -125 -56 -24 0 -26 2 -15 14 8 7 28 17 44 20 17 4 46 20
65 35 37 32 61 21 31 -13z m-1560 -318 c-17 -17 -15 -51 2 -45 10 4 13 1 9 -8
-3 -8 -9 -12 -14 -9 -5 3 -6 -1 -3 -9 7 -19 -118 -205 -199 -297 -75 -83 -166
-166 -275 -247 -64 -48 -75 -53 -90 -41 -15 12 -16 11 -3 -4 12 -16 10 -19
-14 -28 -16 -6 -33 -9 -39 -6 -6 2 -3 5 7 5 10 1 15 6 12 12 -4 6 -14 8 -23 4
-24 -9 -13 0 71 58 214 147 434 390 534 588 13 28 27 48 31 45 3 -4 0 -12 -6
-18z m28 -18 c0 -5 -8 -10 -17 -10 -15 0 -16 2 -3 10 19 12 20 12 20 0z
m-4225 -310 c15 -17 16 -28 7 -107 -12 -111 -2 -194 37 -303 47 -130 126 -214
277 -297 44 -23 73 -43 67 -43 -21 0 -131 56 -182 95 -53 38 -131 125 -131
144 0 7 -5 9 -12 5 -7 -4 -8 -3 -4 4 4 7 2 12 -4 12 -6 0 -8 5 -5 10 4 6 2 16
-3 23 -5 7 -17 38 -26 70 -10 35 -21 55 -27 51 -7 -4 -8 -9 -1 -13 5 -3 6 -15
1 -28 -7 -19 -12 -21 -40 -13 -18 5 -37 15 -43 21 -8 8 -5 10 11 5 12 -4 24
-2 29 5 5 9 2 10 -9 6 -12 -4 -17 -1 -18 11 0 10 -3 12 -6 5 -2 -7 -9 -13 -14
-13 -14 0 -11 28 4 34 6 3 3 4 -7 3 -45 -5 -73 172 -41 251 33 78 99 108 140
62z m4874 1 c11 -11 28 -35 38 -53 36 -66 12 -258 -32 -258 -8 0 -15 -5 -15
-11 0 -5 5 -7 10 -4 6 3 10 2 10 -3 0 -19 -43 -22 -56 -4 -8 10 -14 12 -14 5
0 -6 4 -14 10 -18 11 -7 2 -35 -11 -35 -5 0 -9 14 -9 32 0 17 -3 28 -7 25 -3
-4 -6 -24 -6 -44 1 -21 -1 -32 -4 -25 -2 6 -9 10 -14 6 -5 -3 -9 0 -9 5 0 6 4
11 9 11 4 0 6 12 3 27 -4 23 -7 20 -18 -26 -36 -138 -135 -262 -264 -330 -79
-42 -76 -37 20 27 90 60 127 98 173 175 64 106 89 242 77 420 -4 59 -2 70 14
83 28 20 73 17 95 -5z m227 -42 c42 -35 41 -192 -2 -257 -25 -38 -103 -120
-137 -144 l-30 -21 19 29 c10 16 23 33 29 37 5 4 -3 5 -18 1 l-29 -7 35 46
c66 87 95 203 74 301 -8 39 -8 39 20 31 15 -3 33 -11 39 -16z m-5391 -86 c0
-75 4 -97 27 -146 15 -32 42 -76 59 -98 17 -21 26 -39 20 -39 -6 0 -11 5 -11
11 0 5 -5 7 -10 4 -6 -4 -10 -3 -9 2 3 20 -2 34 -11 28 -6 -3 -17 1 -26 9 -8
9 -13 16 -10 16 2 0 -10 16 -28 35 -18 19 -43 54 -56 78 -31 59 -23 125 21
162 17 14 31 25 32 25 1 0 2 -39 2 -87z m-975 -83 c0 -5 -19 -19 -42 -31 -111
-56 -234 -161 -288 -246 -25 -38 -27 -40 -27 -18 0 13 3 22 8 19 8 -5 13 10
10 29 -1 5 3 6 9 2 5 -3 10 1 10 10 0 9 12 27 28 40 22 20 24 24 9 25 -11 0
-15 -4 -11 -12 5 -8 2 -9 -12 -4 -10 4 -15 4 -12 0 4 -3 0 -13 -8 -22 -12 -12
-18 -12 -27 -2 -9 10 -9 11 1 6 7 -4 12 -2 12 6 0 40 150 144 262 182 86 30
78 28 78 16z m537 -21 c101 -27 187 -67 358 -169 295 -175 464 -283 458 -293
-3 -6 -1 -7 5 -3 15 9 74 -22 66 -35 -3 -6 0 -10 7 -8 31 4 43 -1 32 -12 -14
-14 -69 14 -339 171 -243 142 -364 204 -489 251 -49 19 -92 37 -93 41 -2 5 -7
6 -12 3 -4 -3 -33 4 -63 14 -177 61 -366 50 -516 -29 -42 -22 -65 -31 -51 -20
45 36 164 89 235 104 93 21 295 13 402 -15z m6678 16 c102 -26 197 -79 280
-157 43 -40 72 -74 66 -76 -6 -2 -11 -8 -11 -14 0 -6 6 -8 13 -5 7 3 13 -3 13
-13 0 -23 -8 -18 -59 37 -62 67 -174 136 -274 168 -48 15 -95 31 -103 35 -21
9 -224 1 -214 -9 2 -2 -37 -15 -87 -28 -187 -48 -337 -117 -652 -297 -135 -77
-225 -122 -235 -119 -9 4 -13 2 -8 -5 9 -15 -14 -26 -27 -13 -9 9 -8 11 6 5
11 -4 17 -2 15 4 -3 11 106 82 417 269 257 156 328 189 470 222 68 15 323 13
390 -4z m183 -16 c109 -37 224 -120 284 -207 34 -50 29 -72 -6 -27 -41 52 -76
86 -76 75 0 -22 52 -100 62 -93 6 3 8 2 5 -4 -3 -5 5 -40 19 -78 14 -37 23
-73 20 -79 -2 -6 -5 -4 -5 4 -2 33 -70 158 -118 215 -53 64 -136 129 -230 182
-68 38 -48 43 45 12z m-7122 -54 c18 -17 54 -20 54 -4 0 11 36 6 98 -12 45
-14 40 -26 -16 -38 -26 -5 -56 -13 -66 -17 -14 -5 -17 -4 -12 4 4 7 3 12 -3
12 -5 0 -13 -4 -16 -10 -3 -5 -11 -10 -16 -10 -6 0 -7 5 -3 11 4 8 0 8 -15 0
-11 -7 -21 -16 -21 -20 0 -5 -7 -12 -16 -15 -12 -5 -15 -2 -10 9 3 10 2 13 -5
10 -6 -4 -8 -13 -6 -19 3 -7 1 -19 -5 -27 -8 -11 -9 -10 -4 3 3 10 -2 22 -12
28 -14 8 -14 11 -4 18 11 7 10 10 -3 15 -11 5 -14 3 -9 -5 5 -8 2 -9 -11 -4
-14 5 -16 4 -6 -7 6 -8 18 -37 26 -64 8 -27 24 -58 35 -68 20 -18 20 -18 21
13 1 18 2 38 3 45 4 25 -7 29 -20 6 -7 -13 -13 -19 -14 -13 0 18 41 65 51 59
5 -4 6 1 3 9 -3 9 -1 16 5 16 14 0 14 -20 1 -40 -7 -11 -10 -11 -10 -2 0 7 -5
10 -12 6 -8 -5 -7 -10 4 -18 11 -8 12 -19 6 -41 -4 -16 -5 -38 -2 -47 6 -19
-10 -23 -41 -12 -19 8 -45 55 -45 84 0 11 -12 32 -26 47 -21 21 -32 24 -61 20
-38 -7 -83 -41 -83 -64 0 -8 -5 -11 -10 -8 -6 4 -7 12 -3 18 14 23 11 37 -7
37 -10 0 -22 -4 -25 -10 -3 -5 -14 -10 -23 -10 -12 0 -10 4 8 17 36 25 50 40
43 47 -3 3 11 13 33 22 97 42 223 56 250 29z m6973 -16 c89 -31 133 -69 76
-65 -14 0 -25 4 -25 8 0 4 -16 10 -35 14 -19 3 -32 10 -29 15 6 11 1 11 -20 3
-9 -3 -16 -9 -16 -13 0 -7 7 -9 50 -13 11 -1 20 -7 20 -13 0 -6 9 -21 20 -33
27 -29 26 -89 -1 -122 l-21 -25 16 27 c36 61 0 141 -70 154 -50 9 -79 -14 -94
-76 -7 -30 -21 -56 -33 -65 -31 -22 -44 -18 -15 4 16 13 29 38 37 74 10 46 17
57 46 73 19 10 32 20 30 22 -2 3 -16 -3 -30 -12 -14 -9 -25 -13 -25 -9 0 4 -6
-2 -14 -13 -14 -19 -15 -19 -23 1 -7 18 -8 17 -14 -10 -6 -29 -7 -29 -8 -4 -1
30 -30 49 -32 21 -1 -9 -1 -20 0 -24 2 -13 -27 3 -33 18 -3 8 -2 12 3 9 5 -3
13 0 17 6 5 9 0 10 -15 6 -12 -3 -37 -1 -54 5 -39 13 -63 33 -30 25 13 -3 26
-1 29 4 3 5 20 9 37 9 18 0 43 7 57 15 31 17 121 10 199 -16z m-7379 -43 c0
-2 -8 -10 -17 -17 -16 -13 -17 -12 -4 4 13 16 21 21 21 13z m6265 -23 c-4 -10
-10 -26 -12 -35 -8 -28 -18 -21 -18 11 0 20 4 27 14 23 9 -3 12 -1 7 6 -4 7
-2 12 4 12 8 0 9 -7 5 -17z m-1295 -17 c0 -2 -7 -7 -16 -10 -8 -3 -12 -2 -9 4
6 10 25 14 25 6z m-4858 -28 c-7 -7 -12 -8 -12 -2 0 14 12 26 19 19 2 -3 -1
-11 -7 -17z m7403 12 c3 -6 -1 -7 -9 -4 -18 7 -21 14 -7 14 6 0 13 -4 16 -10z
m127 -89 c36 -57 36 -75 1 -31 -16 18 -45 52 -65 74 -21 23 -38 45 -38 49 0
18 75 -51 102 -92z m-415 67 c-3 -8 -6 -5 -6 6 -1 11 2 17 5 13 3 -3 4 -12 1
-19z m544 -15 c13 -16 12 -17 -3 -4 -10 7 -18 15 -18 17 0 8 8 3 21 -13z
m-1526 -2 c3 -5 2 -12 -3 -15 -5 -3 -9 1 -9 9 0 17 3 19 12 6z m71 -3 c4 -7 4
-10 -1 -6 -4 4 -15 2 -24 -5 -14 -11 -14 -10 -2 6 16 20 18 21 27 5z m-1648
-52 c-21 -15 -24 -36 -5 -37 17 -1 -62 -35 -152 -65 -105 -35 -254 -70 -391
-91 -157 -23 -462 -23 -620 1 -140 21 -320 65 -320 78 0 5 -5 6 -10 3 -15 -9
-51 5 -44 16 4 6 11 6 19 -1 9 -8 15 -8 20 0 3 5 0 10 -8 10 -8 0 -21 7 -28
16 -12 15 -11 16 6 11 140 -44 378 -83 565 -93 287 -15 686 47 925 145 59 24
66 25 43 7z m512 -21 c0 -2 -10 -9 -22 -15 -22 -11 -22 -10 -4 4 21 17 26 19
26 11z m1090 1 c0 -8 -149 -115 -215 -154 -67 -39 -223 -107 -230 -100 -2 2
31 21 73 42 82 42 184 101 279 163 49 32 78 49 91 52 1 1 2 -1 2 -3z m1341
-73 c6 -19 9 -46 6 -60 -4 -22 -2 -24 22 -19 25 6 25 6 7 -9 -36 -27 -46 -19
-46 38 0 35 -7 63 -21 87 l-21 35 20 -19 c12 -10 26 -34 33 -53z m-7436 38 c3
-5 2 -12 -3 -15 -5 -3 -9 1 -9 9 0 17 3 19 12 6z m6502 -10 c23 -11 47 -30 54
-43 l12 -23 -24 21 c-33 30 -63 44 -112 54 l-42 8 35 1 c19 0 54 -8 77 -18z
m-5287 -12 c0 -5 4 -9 10 -9 5 0 40 -19 77 -42 38 -23 123 -68 191 -100 67
-32 122 -60 122 -63 0 -10 -111 30 -185 67 -79 40 -239 141 -250 157 -3 5 4 7
15 4 11 -3 20 -9 20 -14z m5069 -3 c-10 -9 -69 -36 -69 -32 0 7 52 35 64 36 5
0 7 -2 5 -4z m1606 -156 c8 0 15 -4 15 -10 0 -26 -62 4 -106 52 -69 75 -66 92
5 26 39 -38 78 -68 86 -68z m-626 67 c45 -30 81 -90 81 -137 l0 -30 -40 40
c-44 44 -86 53 -114 24 -21 -20 -20 -23 6 -51 l22 -24 -44 7 c-52 8 -64 14
-28 14 22 0 24 4 20 30 -4 27 0 32 33 45 39 17 68 13 98 -13 24 -21 21 -1 -6
39 -30 45 -89 73 -150 72 -32 0 -44 3 -35 9 25 17 115 3 157 -25z m-2697 1
c-17 -17 -15 -28 6 -28 24 -1 -54 -35 -175 -76 -185 -63 -436 -106 -691 -117
-185 -9 -496 26 -672 74 -41 12 -87 23 -102 26 -15 3 -25 9 -22 14 3 5 -4 9
-15 9 -12 0 -21 4 -21 10 0 5 7 7 15 4 8 -4 15 -2 15 4 0 6 -12 15 -27 21 -33
13 -38 14 147 -29 233 -54 332 -65 605 -64 206 0 275 4 390 22 155 24 326 66
455 111 96 33 109 36 92 19z m1879 -52 c33 -53 19 -109 -34 -137 -19 -11 -18
-8 6 20 40 48 32 106 -23 148 -13 10 -11 11 9 6 12 -3 32 -20 42 -37z m1226
22 c-3 -8 -6 -5 -6 6 -1 11 2 17 5 13 3 -3 4 -12 1 -19z m-6322 -106 c-5 -6
-184 82 -210 103 -11 8 33 -10 97 -42 64 -31 115 -59 113 -61z m4735 113 c0
-2 -10 -9 -22 -15 -22 -11 -22 -10 -4 4 21 17 26 19 26 11z m189 -30 c-21 -35
-21 -35 -1 -68 l20 -34 -172 -7 c-94 -3 -189 -8 -211 -11 -31 -4 -35 -3 -18 4
35 16 168 31 268 31 l94 0 -9 29 c-6 22 -3 37 11 60 10 17 23 31 29 31 5 0 0
-16 -11 -35z m-259 -10 c0 -6 -76 -45 -87 -45 -4 1 12 12 37 25 50 27 50 27
50 20z m-5047 -35 c-3 -11 -9 -23 -14 -26 -5 -3 -5 6 0 19 6 14 7 28 3 33 -4
4 -2 4 5 1 6 -4 9 -16 6 -27z m497 -5 c0 -2 -9 -3 -19 -2 -11 0 -18 5 -15 9 4
6 34 0 34 -7z m5423 -15 c3 -11 1 -18 -4 -14 -5 3 -9 12 -9 20 0 20 7 17 13
-6z m-5096 -15 c104 -23 106 -39 5 -33 -44 3 -88 11 -99 17 -14 9 -10 10 22 6
l40 -6 -40 20 c-22 12 -31 19 -20 16 11 -2 53 -11 92 -20z m6100 0 c-31 -28
-64 -30 -117 -9 -35 14 -35 14 21 8 41 -4 64 -2 85 10 41 21 43 19 11 -9z
m-1339 -27 c-34 -44 -64 -58 -123 -57 l-50 1 51 8 c59 9 80 19 113 54 34 36
39 32 9 -6z m-5298 7 c47 -7 99 -19 115 -24 27 -10 26 -10 -15 -6 -172 19
-246 25 -325 26 -60 0 -83 3 -70 9 32 14 203 11 295 -5z m5859 -18 c-2 -1 -15
-11 -29 -22 l-25 -20 19 23 c11 12 24 22 29 22 6 0 8 -1 6 -3z m-5551 -28 c91
-24 99 -29 46 -29 -38 0 -153 27 -124 29 13 1 13 2 0 11 -22 14 -8 12 78 -11z
m429 5 c-3 -3 -12 -4 -19 -1 -8 3 -5 6 6 6 11 1 17 -2 13 -5z m5633 -105 c-29
-55 -113 -144 -167 -176 -52 -30 -133 -56 -133 -43 0 6 8 10 18 10 67 0 217
118 270 212 33 58 41 56 12 -3z m-7872 -157 c43 -28 117 -54 182 -65 14 -3 -2
-3 -34 -1 -34 2 -82 14 -113 29 -54 24 -149 110 -173 155 -7 14 10 0 38 -32
29 -31 74 -70 100 -86z m7762 119 c-13 -26 -13 -34 3 -25 6 4 -1 -7 -16 -23
-16 -17 -52 -44 -80 -59 -46 -26 -62 -29 -137 -29 -70 1 -97 6 -153 29 -37 16
-70 33 -73 38 -4 6 2 5 14 -1 27 -14 35 -14 26 1 -5 8 -2 9 12 3 10 -4 44 -17
74 -28 100 -35 221 -4 300 77 40 41 45 44 30 17z m-7275 -91 c-3 -5 -12 -10
-18 -10 -7 0 -6 4 3 10 19 12 23 12 15 0z m7395 -100 c-49 -95 -161 -182 -256
-197 l-39 -6 27 32 c21 24 26 39 22 60 -4 17 1 41 11 61 16 31 16 33 -1 26 -9
-4 -45 -9 -78 -11 l-61 -4 51 8 c28 5 68 14 88 21 47 15 54 8 27 -26 -15 -18
-21 -41 -21 -73 0 -26 -5 -52 -12 -59 -19 -19 -2 -14 60 15 64 30 137 98 172
160 30 55 38 48 10 -7z m-332 3 c-10 -2 -26 -2 -35 0 -10 3 -2 5 17 5 19 0 27
-2 18 -5z m-7488 -13 c11 -6 52 -14 92 -19 l73 -8 -55 -2 c-30 0 -70 3 -88 9
-30 8 -33 7 -26 -8 4 -9 10 -41 12 -70 3 -41 9 -56 29 -72 l26 -20 -29 0 c-59
0 -174 67 -221 129 -29 37 -10 32 20 -6 20 -25 80 -63 142 -88 34 -15 38 -15
26 -1 -9 10 -11 28 -6 54 5 33 2 44 -19 69 -14 17 -26 34 -26 37 0 9 29 7 50
-4z m6855 -251 c62 -17 135 -50 130 -59 -3 -5 9 -13 25 -19 18 -6 28 -6 25 -1
-4 6 3 10 14 10 13 0 21 9 26 30 5 21 13 30 26 30 18 0 19 -9 19 -166 0 -163
0 -165 -21 -162 -21 3 -40 50 -63 148 -3 14 -19 41 -36 60 -17 19 -28 28 -24
20 5 -8 -9 -2 -29 13 -56 42 -112 58 -197 56 -88 -2 -137 -27 -163 -82 -43
-90 9 -198 98 -203 39 -1 237 -41 270 -54 14 -5 25 -13 25 -18 0 -12 49 -34
60 -27 14 9 91 -66 107 -102 22 -54 14 -61 -16 -13 -15 25 -38 53 -49 64 -21
18 -21 18 -16 -5 7 -36 7 -357 -1 -369 -3 -5 -2 -10 4 -10 5 0 8 -9 6 -20 -6
-31 2 -24 41 35 21 30 39 53 41 51 9 -9 -30 -83 -59 -113 -32 -33 -56 -44 -42
-20 4 7 3 9 -2 4 -5 -5 -10 -13 -10 -18 -3 -22 -5 -23 -12 -11 -7 9 -16 6 -37
-14 -36 -33 -73 -44 -151 -44 -59 0 -151 21 -163 37 -3 4 -36 23 -73 40 -63
30 -68 35 -69 65 0 18 -2 41 -4 51 -2 9 1 17 6 17 5 0 9 -4 9 -9 0 -16 119
-133 130 -126 5 3 10 2 10 -2 0 -5 8 -9 18 -10 9 0 42 -6 72 -11 59 -11 133
-2 173 20 12 7 27 11 33 10 18 -3 47 35 47 62 0 14 2 24 6 22 3 -2 4 28 3 67
-4 74 -24 122 -49 113 -8 -3 -11 -2 -8 4 3 5 -3 9 -12 8 -26 -1 -277 73 -281
83 -2 4 -25 15 -52 24 -26 9 -60 27 -74 40 l-26 24 0 189 0 190 34 30 c19 16
50 35 70 42 20 6 36 15 36 20 0 19 116 25 175 9z m-5235 -19 c12 -8 10 -10
-10 -11 -17 -1 -19 -3 -7 -6 28 -7 19 -23 -13 -23 l-30 0 0 -439 0 -439 38
-10 c20 -5 28 -10 18 -11 -20 -1 -20 -1 0 -16 17 -13 9 -14 -83 -15 -62 0
-103 4 -103 10 0 6 -22 10 -50 10 -27 0 -50 -4 -50 -10 0 -5 -25 -10 -55 -10
-52 0 -55 1 -55 26 0 25 1 25 48 19 26 -3 55 -8 65 -11 16 -5 17 20 17 430 0
279 -4 437 -10 441 -5 3 -10 0 -11 -7 -2 -37 -11 -66 -67 -218 -48 -133 -218
-587 -247 -662 -5 -12 -18 -18 -39 -18 -32 0 -32 0 -75 126 -24 69 -45 135
-46 147 -3 26 -53 170 -155 455 -45 125 -78 202 -87 202 -22 0 -15 19 10 25
12 2 65 6 118 7 90 3 96 2 91 -16 -4 -14 -2 -17 8 -11 10 6 12 4 7 -8 -4 -10
-2 -17 4 -17 6 0 8 -7 5 -16 -3 -8 -2 -13 2 -10 6 4 70 -158 204 -524 12 -33
9 -39 111 230 47 124 99 259 115 299 l30 75 49 -3 c26 -1 59 2 73 8 32 13 161
14 180 1z m540 -16 c0 -25 -1 -26 -62 -22 l-63 3 4 -325 c4 -405 4 -409 14
-403 4 2 7 -4 7 -15 0 -28 69 -102 114 -123 48 -22 150 -25 211 -7 22 6 46 10
53 9 18 -3 53 29 46 41 -3 4 0 7 6 6 7 -2 14 4 16 12 2 8 13 41 24 73 20 55
21 76 18 375 -3 310 -3 318 -25 339 -12 12 -24 19 -27 16 -3 -4 -6 -1 -6 5 0
7 -12 13 -27 13 -23 1 -21 3 12 11 69 16 176 21 188 9 8 -8 1 -11 -26 -12 -20
-1 -41 -3 -47 -4 -5 -1 -17 -3 -26 -4 -14 -1 -15 -3 -3 -18 12 -14 12 -16 0
-8 -11 6 -13 4 -6 -11 5 -10 11 -44 14 -74 l6 -55 7 54 c9 69 30 101 66 100
25 0 25 -1 7 -10 -47 -23 -49 -36 -56 -379 -4 -206 -10 -339 -18 -362 -13 -40
-71 -123 -87 -123 -16 -1 -73 -38 -68 -46 11 -19 -104 -44 -201 -44 -99 1
-222 26 -211 44 3 4 -5 13 -19 19 -38 18 -105 82 -125 123 -32 63 -40 153 -40
482 l0 317 98 1 c53 1 108 5 122 9 14 4 44 8 68 9 39 1 42 -1 42 -25z m1235
16 c22 0 68 2 103 6 l62 6 0 -146 c0 -136 -1 -146 -19 -146 -15 0 -21 12 -30
58 -11 56 -61 142 -82 142 -5 0 -9 6 -9 14 0 8 -13 19 -30 25 -16 5 -30 7 -30
3 0 -4 -63 -6 -140 -4 l-140 3 0 -197 0 -197 75 6 c123 11 155 41 155 143 0
40 2 44 25 44 l25 0 -2 -222 c-3 -191 -5 -223 -18 -226 -12 -2 -19 13 -28 57
-21 99 -87 151 -194 151 l-38 0 0 -222 0 -223 163 2 c193 1 192 1 184 9 -4 4
13 19 36 35 54 36 76 74 92 162 9 51 13 62 14 36 1 -20 -4 -62 -11 -94 -9 -46
-20 -67 -54 -103 -49 -52 -46 -66 13 -70 75 -5 59 -22 -21 -22 -49 0 -75 4
-71 10 4 6 -8 10 -29 10 -20 0 -36 -4 -36 -10 0 -6 -63 -10 -169 -10 -103 0
-172 4 -176 10 -3 6 -39 10 -78 10 l-72 0 3 470 2 470 73 1 c39 0 81 4 92 9
11 5 88 7 170 5 83 -3 168 -5 190 -5z m844 -9 c19 -6 37 -15 41 -20 3 -6 23
-17 44 -26 21 -9 35 -11 31 -6 -9 16 25 2 62 -25 63 -47 83 -179 36 -242 -28
-38 -81 -72 -100 -65 -12 5 -14 3 -8 -7 5 -8 4 -11 -3 -6 -14 8 -62 -14 -62
-29 0 -16 18 -31 53 -44 20 -8 26 -8 22 0 -10 15 61 -17 93 -42 27 -21 51 -55
52 -74 0 -5 -17 8 -38 28 -39 38 -62 47 -63 25 0 -7 1 -67 2 -133 1 -66 2
-130 2 -142 -1 -14 3 -20 10 -16 6 4 7 1 1 -8 -4 -8 -9 -20 -10 -27 -3 -15 11
-6 64 42 38 36 43 20 6 -24 -26 -30 -57 -50 -110 -70 -18 -7 -23 -7 -18 1 9
15 -36 1 -57 -17 -38 -33 -153 -38 -426 -18 l-83 6 0 469 0 469 78 0 c42 0 84
5 92 11 18 13 239 5 289 -10z m821 -6 c0 -24 -3 -25 -60 -25 l-60 0 2 -440 3
-441 161 -1 160 0 48 43 c54 49 95 125 97 179 0 19 5 44 10 55 6 13 7 -3 3
-50 -6 -76 -28 -135 -67 -177 -13 -16 -24 -38 -23 -50 1 -19 8 -24 41 -26 73
-6 63 -22 -13 -22 -41 0 -72 4 -72 10 0 6 -16 10 -35 10 -19 0 -35 -4 -35 -10
0 -6 -63 -10 -169 -10 -103 0 -172 4 -176 10 -3 6 -37 10 -76 10 l-69 0 0 470
0 470 68 1 c72 1 100 4 110 13 3 3 38 6 79 6 71 0 73 -1 73 -25z m1095 15 c22
0 68 2 103 6 l62 6 0 -146 c0 -134 -1 -146 -18 -146 -14 0 -21 13 -30 60 -12
56 -58 135 -100 168 -11 8 -63 12 -174 12 l-158 0 0 -196 0 -197 75 6 c121 11
146 32 161 140 5 37 10 47 25 47 18 0 19 -11 19 -225 0 -218 -1 -225 -20 -225
-14 0 -20 7 -20 23 0 44 -32 117 -61 141 -34 29 -87 46 -141 46 l-38 0 0 -220
0 -220 128 0 c70 0 143 -3 163 -6 28 -5 41 -2 55 13 10 11 33 29 51 41 39 28
71 92 82 168 8 54 9 56 10 17 2 -78 -18 -139 -61 -188 -50 -56 -46 -75 17 -75
25 0 45 -4 45 -10 0 -6 -30 -10 -70 -10 -40 0 -70 4 -70 10 0 6 -16 10 -35 10
-19 0 -35 -4 -35 -10 0 -6 -63 -10 -169 -10 -103 0 -172 4 -176 10 -3 6 -37
10 -76 10 l-69 0 0 470 0 470 73 1 c39 1 83 5 97 9 14 5 90 7 170 5 80 -3 163
-5 185 -5z m-5628 -16 c-3 -3 -12 -4 -19 -1 -8 3 -5 6 6 6 11 1 17 -2 13 -5z
m5978 -254 c0 -124 -6 -156 -19 -107 -8 29 -8 201 0 221 14 37 19 8 19 -114z
m-3 -527 c-1 -62 -5 -121 -11 -130 -7 -13 -10 26 -10 137 0 116 3 149 11 130
5 -14 10 -76 10 -137z m-5865 -125 c10 -9 27 -18 38 -21 11 -2 -1 -5 -26 -6
-46 -1 -47 0 -51 32 -2 17 -1 41 1 52 3 16 6 14 12 -11 5 -17 17 -38 26 -46z
m-104 -25 c-7 -2 -19 -2 -25 0 -7 3 -2 5 12 5 14 0 19 -2 13 -5z m4406 -505
c148 -421 252 -723 256 -751 10 -61 98 -306 108 -300 6 4 8 0 4 -10 -3 -9 -2
-17 2 -19 4 -2 28 -57 53 -123 l45 -120 74 -5 c47 -3 67 -8 56 -12 -30 -12
-142 -9 -155 4 -9 9 -12 9 -12 0 0 -7 5 -12 10 -12 6 0 10 -7 10 -15 0 -12 14
-15 68 -15 37 0 74 -5 82 -10 10 -7 -26 -9 -115 -5 -175 6 -186 6 -367 -1
l-158 -6 0 36 0 36 115 0 c63 0 115 2 115 4 0 12 -129 359 -136 366 -5 4 -109
10 -231 12 -193 3 -223 2 -229 -12 -30 -75 -144 -381 -144 -386 0 -7 151 1
233 12 l47 7 0 -38 c0 -37 -1 -37 -32 -31 -18 3 -101 9 -185 12 -118 5 -150
10 -146 20 2 7 14 14 25 16 13 2 25 18 38 53 9 28 43 120 75 205 94 255 167
464 170 485 4 25 41 131 145 415 45 124 87 237 92 253 7 18 17 27 32 27 19 0
27 -13 55 -92z m1589 61 c31 -11 87 -38 124 -60 73 -43 90 -43 122 2 9 13 21
19 30 16 8 -3 17 -1 20 6 4 7 4 -8 2 -33 -3 -25 -1 -65 4 -90 6 -31 5 -47 -3
-52 -9 -6 -9 -8 1 -8 9 0 12 -28 12 -105 0 -67 -4 -105 -11 -105 -5 0 -7 5 -3
11 4 7 0 9 -14 5 -17 -6 -21 -1 -27 26 -26 122 -127 249 -242 304 -78 37 -238
46 -329 19 -32 -10 -66 -20 -74 -21 -25 -5 -89 -86 -110 -141 -27 -72 -40
-221 -40 -463 0 -401 24 -557 100 -643 23 -26 44 -46 48 -45 4 1 25 -7 47 -17
31 -15 63 -19 145 -20 98 0 108 2 160 30 84 47 101 88 108 265 l5 140 -122 0
-121 0 0 36 0 35 183 -5 c100 -2 206 -8 235 -11 35 -5 52 -3 52 4 0 7 39 11
118 11 79 0 112 -3 102 -10 -8 -5 -45 -10 -81 -10 -52 0 -66 -3 -66 -15 0 -12
15 -15 71 -15 39 0 78 -5 86 -10 10 -7 -10 -10 -66 -10 l-81 0 -7 -61 c-10
-87 -41 -180 -68 -202 -13 -10 -16 -16 -8 -12 10 4 9 2 -2 -8 -10 -8 -14 -18
-10 -22 4 -5 2 -5 -4 -2 -6 3 -36 -21 -67 -53 -108 -114 -284 -171 -458 -149
-74 9 -152 29 -145 37 3 2 -21 18 -53 34 -67 34 -179 132 -211 182 -20 34 -21
44 -21 501 l0 466 36 49 c48 66 118 123 218 177 135 74 280 88 415 42z m2420
21 c82 -14 163 -45 196 -75 14 -13 26 -23 26 -21 0 2 19 -14 42 -36 23 -21 46
-38 53 -38 30 0 159 -160 195 -243 38 -88 30 -89 -22 -1 -55 94 -112 175 -87
124 11 -23 11 -24 -4 -11 -22 18 -22 3 1 -22 9 -11 12 -17 6 -14 -8 4 -12 -3
-12 -21 0 -15 0 -218 -1 -451 -1 -233 0 -426 3 -428 6 -6 64 80 109 162 47 86
39 47 -11 -54 -25 -51 -60 -98 -110 -150 -40 -42 -70 -69 -66 -61 7 13 -80
-55 -124 -97 -20 -19 -91 -48 -152 -63 -68 -16 -177 -17 -251 -1 -139 29 -391
240 -391 327 0 13 -4 21 -9 18 -5 -3 -6 1 -3 9 3 8 6 199 7 424 l2 410 40 49
c62 76 108 117 197 177 124 83 232 108 366 87z m-9673 -59 c39 -13 89 -33 113
-44 148 -70 205 -293 113 -439 -29 -46 -107 -105 -151 -114 -49 -10 -100 -27
-100 -34 0 -4 -15 -11 -32 -17 l-33 -9 56 -27 c31 -15 69 -27 86 -27 44 0 146
-55 187 -100 51 -57 45 -70 -9 -19 -41 39 -81 68 -95 69 -3 0 -5 -123 -5 -274
0 -319 -3 -313 99 -204 57 61 58 62 38 22 -37 -72 -167 -167 -216 -156 -10 2
-16 0 -13 -5 3 -4 -11 -9 -30 -10 -19 -1 -41 -8 -50 -15 -32 -26 -802 -10
-796 17 2 6 21 11 43 13 l40 3 0 675 0 674 -39 0 c-35 0 -61 14 -49 26 3 2 67
7 144 10 76 4 141 9 144 11 2 2 113 3 245 1 221 -3 245 -5 310 -27z m1545 19
c14 0 73 3 131 6 l107 6 6 -39 c3 -21 7 -105 10 -188 5 -155 -3 -111 -19 108
l-7 97 -54 0 c-36 0 -54 -4 -55 -12 -4 -54 -3 -108 2 -108 11 0 69 -125 82
-180 11 -43 19 -56 36 -58 28 -4 17 -22 -14 -22 -20 0 -25 7 -34 53 -24 114
-114 244 -184 266 -19 6 -132 9 -267 8 l-235 -2 0 -295 0 -295 55 -3 c90 -6
176 7 212 32 43 28 75 87 83 150 10 80 13 86 46 86 l29 0 0 -310 0 -310 -29 0
c-31 0 -41 14 -41 59 0 45 -29 128 -56 160 -34 41 -105 61 -213 61 l-86 0 0
-318 0 -317 230 -2 c221 -2 322 7 309 28 -3 5 -1 9 4 9 19 0 104 84 124 123
31 62 56 139 63 201 4 31 11 56 14 56 11 0 -7 -127 -26 -185 -21 -68 -38 -98
-75 -140 -22 -26 -32 -48 -33 -75 -1 -22 2 -40 7 -40 6 0 8 -7 4 -15 -4 -12 5
-15 52 -15 31 0 64 -5 72 -10 10 -7 -19 -9 -95 -5 -60 3 -135 5 -165 4 -167
-6 -583 -2 -698 7 -132 9 -180 26 -89 32 l47 3 0 675 0 674 -45 0 c-33 0 -45
4 -45 15 0 8 1 15 3 15 1 1 63 3 137 7 74 3 137 7 140 10 2 2 124 2 270 -1
146 -3 276 -5 290 -6z m1260 -25 l0 -35 -120 0 -120 0 0 -654 0 -655 228 -3
c138 -2 237 1 253 7 30 12 120 109 145 157 10 18 32 80 50 138 17 57 38 106
45 109 11 3 11 1 3 -10 -6 -8 -15 -32 -18 -54 -13 -70 -54 -182 -88 -237 -26
-42 -33 -64 -33 -105 l-1 -53 68 0 c65 0 67 1 71 28 4 20 4 18 3 -8 l-1 -35
-110 2 c-60 2 -130 2 -155 2 -406 -10 -810 4 -810 28 0 9 15 13 50 13 l50 0 0
675 0 675 -44 0 c-40 0 -66 13 -53 26 7 8 263 21 435 23 l152 1 0 -35z m1420
0 l0 -35 -120 0 -120 0 0 -654 0 -655 223 -3 c122 -2 235 0 250 4 35 9 113 94
149 162 15 28 40 95 55 148 19 68 33 98 43 98 9 0 11 -3 5 -8 -5 -4 -21 -50
-34 -102 -25 -100 -48 -154 -88 -208 -20 -26 -24 -42 -22 -87 l2 -55 61 -1
c34 -1 67 -1 75 0 7 2 10 -2 6 -8 -9 -15 -198 -14 -212 0 -7 7 -27 9 -55 4
-61 -11 -506 -11 -670 -1 -105 7 -138 12 -138 23 0 9 15 13 50 13 l50 0 0 675
0 675 -50 0 c-38 0 -50 4 -50 15 0 9 10 15 28 16 15 1 77 5 137 9 61 3 181 7
268 8 l157 2 0 -35z m4315 26 c6 0 41 2 79 5 50 5 67 3 62 -5 -4 -6 -25 -11
-46 -11 -31 0 -38 -3 -34 -15 4 -10 20 -15 45 -15 21 0 39 -4 39 -10 0 -6 -27
-10 -60 -10 -33 0 -60 4 -60 10 0 14 -31 13 -63 -2 l-27 -13 0 -650 0 -650 31
-14 c25 -11 36 -11 50 -2 23 14 133 15 124 1 -3 -5 -21 -10 -40 -10 -20 0 -35
-6 -39 -15 -4 -12 3 -15 34 -15 21 0 42 -5 46 -11 4 -8 -14 -9 -62 -5 -38 3
-77 5 -86 5 -225 -10 -468 4 -468 27 0 10 15 14 49 14 27 0 61 4 75 10 l26 10
0 654 c0 747 10 676 -93 676 -38 0 -57 4 -60 14 -5 11 11 16 71 21 42 4 82 8
87 10 8 3 270 0 320 -4z m-6375 -27 c0 -8 -10 -14 -25 -14 -23 0 -34 18 -19
32 10 10 44 -4 44 -18z m-3066 1 c-4 -8 -17 -15 -30 -15 -15 0 -24 6 -24 15 0
10 10 15 30 15 22 0 28 -4 24 -15z m1546 0 c0 -9 -9 -15 -25 -15 -16 0 -25 6
-25 15 0 9 9 15 25 15 16 0 25 -6 25 -15z m2940 0 c0 -9 -9 -15 -24 -15 -13 0
-26 7 -30 15 -4 11 2 15 24 15 20 0 30 -5 30 -15z m4440 0 c0 -8 -7 -15 -15
-15 -8 0 -15 7 -15 15 0 8 7 15 15 15 8 0 15 -7 15 -15z m-1508 -692 c-3 -345
-3 -348 -22 -313 -10 20 -22 60 -28 90 -10 61 -9 432 2 470 11 39 38 100 45
100 3 0 5 -156 3 -347z m2493 2 c0 -179 -1 -325 -2 -325 -2 0 -13 19 -25 43
-22 40 -23 52 -23 277 0 221 1 238 22 283 12 26 23 47 25 47 2 0 3 -146 3
-325z m2107 -7 c-7 -7 -12 -8 -12 -2 0 14 12 26 19 19 2 -3 -1 -11 -7 -17z
m-11 -31 c-6 -8 -8 -17 -4 -21 4 -4 1 -11 -7 -17 -13 -8 -13 -10 -1 -18 19
-12 21 -85 4 -135 -15 -45 -17 -113 -3 -118 17 -6 -158 -370 -298 -620 -245
-437 -553 -865 -908 -1259 -219 -245 -723 -716 -760 -713 -8 1 -12 -2 -9 -6 7
-11 -45 -51 -57 -44 -6 4 -8 3 -5 -3 10 -16 -67 -73 -92 -68 -12 2 -19 0 -16
-6 4 -5 12 -6 18 -2 7 4 6 0 -2 -10 -16 -20 -36 -23 -25 -4 4 7 3 9 -2 4 -5
-5 -8 -12 -7 -15 1 -4 -3 -13 -9 -20 -8 -9 -14 -9 -25 -1 -7 7 -17 9 -20 5 -4
-4 -2 -11 6 -15 9 -6 -2 -19 -39 -46 -36 -26 -55 -34 -62 -27 -7 7 -4 10 8 9
11 -1 18 3 17 10 -2 7 4 10 12 7 8 -4 15 -1 15 4 0 6 9 14 20 17 11 3 20 11
20 16 0 6 -4 8 -8 5 -5 -3 -8 5 -7 16 2 29 23 35 40 12 8 -11 15 -14 15 -7 0
6 -8 18 -18 25 -14 10 -18 24 -16 56 3 39 1 42 -14 31 -9 -6 3 6 28 27 24 22
44 37 45 35 0 -2 23 17 50 43 28 25 56 44 63 41 7 -3 11 -1 8 4 -3 5 34 42 82
84 813 697 1469 1596 1898 2600 32 75 63 137 68 137 4 0 3 -6 -3 -13z m850
-24 c-12 -20 -14 -14 -5 12 4 9 9 14 11 11 3 -2 0 -13 -6 -23z m-18 -66 c-3
-20 -9 -37 -13 -37 -5 0 -6 -28 -3 -62 5 -53 4 -61 -10 -55 -12 4 -14 2 -10
-11 3 -9 11 -23 16 -30 13 -17 10 -296 -3 -300 -15 -5 -12 -39 5 -46 8 -3 12
-12 9 -21 -3 -8 -9 -13 -13 -10 -4 2 -8 -9 -8 -25 0 -26 2 -28 14 -12 19 23 1
-21 -68 -168 -422 -905 -1034 -1740 -1784 -2434 -252 -233 -430 -380 -446
-370 -7 4 -9 3 -6 -3 9 -14 -70 -76 -85 -67 -6 4 -8 3 -5 -3 8 -13 -18 -37
-31 -29 -5 3 -18 -4 -28 -17 l-19 -22 24 20 c14 11 21 14 17 8 -4 -7 -28 -27
-54 -44 -26 -17 -37 -22 -25 -11 24 21 21 34 -5 24 -14 -5 -15 -4 -2 10 13 14
16 14 27 -1 11 -14 12 -14 13 -1 0 9 -5 21 -12 28 -9 9 -8 12 6 12 10 0 14 -4
10 -12 -4 -7 -3 -8 5 -4 9 6 9 11 1 21 -9 11 -7 12 9 8 16 -4 21 -1 21 16 0
11 -4 21 -10 21 -5 0 -10 -4 -10 -10 0 -5 -4 -10 -10 -10 -5 0 -9 28 -9 64 1
36 -2 69 -5 75 -5 7 3 9 24 5 27 -6 30 -4 30 20 0 17 -4 25 -11 21 -6 -4 -8
-14 -5 -22 5 -11 2 -13 -10 -9 -8 3 -23 6 -32 6 -12 0 -10 4 7 13 14 6 26 18
28 24 6 16 -46 -10 -58 -29 -5 -7 -12 -13 -16 -13 -4 0 -24 -11 -43 -23 l-35
-24 35 30 c19 17 38 28 42 26 5 -3 8 -1 8 4 0 12 191 168 202 165 4 -2 7 1 5
5 -1 4 45 49 103 99 282 243 641 612 881 903 162 198 207 255 342 445 387 540
716 1152 948 1761 30 78 55 141 56 140 1 -1 0 -19 -4 -39z m8 -54 c-12 -20
-14 -14 -5 12 4 9 9 14 11 11 3 -2 0 -13 -6 -23z m-832 -124 c1 8 3 12 6 9 9
-8 -6 -38 -16 -32 -5 3 -9 15 -8 27 0 21 1 21 9 2 5 -12 9 -14 9 -6z m851
-329 c5 8 10 11 10 5 0 -5 -5 -17 -11 -25 -8 -11 -12 -12 -16 -2 -2 6 -9 10
-14 6 -10 -6 -12 9 -2 19 4 4 10 2 15 -5 6 -10 10 -10 18 2z m-12860 -55 c0
-10 -10 -15 -30 -15 -20 0 -30 5 -30 15 0 10 10 15 30 15 20 0 30 -5 30 -15z
m1540 0 c0 -9 -9 -15 -25 -15 -16 0 -25 6 -25 15 0 9 9 15 25 15 16 0 25 -6
25 -15z m1520 0 c0 -9 -9 -15 -25 -15 -16 0 -25 6 -25 15 0 9 9 15 25 15 16 0
25 -6 25 -15z m1420 0 c0 -10 -10 -15 -30 -15 -22 0 -28 4 -24 15 4 8 17 15
30 15 15 0 24 -6 24 -15z m1380 0 c0 -10 -10 -15 -30 -15 -20 0 -30 5 -30 15
0 10 10 15 30 15 20 0 30 -5 30 -15z m3060 0 c0 -8 -7 -15 -15 -15 -8 0 -15 7
-15 15 0 8 7 15 15 15 8 0 15 -7 15 -15z m3924 -9 c-3 -9 -10 -16 -15 -16 -6
0 -5 9 1 21 13 24 24 20 14 -5z m-3095 -2320 c10 -12 9 -14 -7 -9 -12 3 -19
-1 -19 -11 0 -9 5 -15 11 -14 7 2 14 -1 16 -6 3 -5 -11 -10 -30 -12 -19 -1
-28 0 -20 4 15 7 26 32 13 32 -4 0 -16 -8 -28 -17 -12 -10 -6 -3 14 15 40 37
35 36 50 18z m-1044 -646 c-3 -5 -12 -10 -18 -10 -7 0 -6 4 3 10 19 12 23 12
15 0z m-50 -30 c-3 -5 -12 -10 -18 -10 -7 0 -6 4 3 10 19 12 23 12 15 0z
m1515 -4 c0 -2 -8 -10 -17 -17 -16 -13 -17 -12 -4 4 13 16 21 21 21 13z
m-1576 -31 c-4 -8 -16 -15 -28 -16 -21 0 -21 -1 -1 -10 16 -7 14 -8 -10 -4
l-30 6 25 -20 c14 -11 21 -23 17 -27 -4 -4 -7 -3 -7 3 0 5 -10 15 -23 20 -18
9 -24 8 -24 -2 0 -8 3 -14 6 -13 20 2 31 -4 31 -17 0 -8 5 -15 12 -15 9 0 9
-3 0 -12 -10 -10 -15 -10 -23 2 -9 12 -10 11 -5 -4 4 -11 1 -23 -6 -27 -7 -4
-10 -10 -7 -14 3 -3 17 3 30 13 13 10 35 19 49 20 18 1 21 -1 11 -8 -8 -4 -21
-6 -30 -2 -9 3 -13 2 -9 -3 9 -10 -2 -16 -174 -94 -978 -443 -2123 -658 -3203
-601 -670 36 -1264 147 -1891 355 -195 64 -273 94 -254 95 3 0 31 -9 63 -20
31 -11 64 -20 74 -19 10 1 -2 6 -27 13 -34 9 -44 17 -42 30 3 14 -1 16 -20 11
l-23 -7 23 20 c12 11 21 26 20 33 -2 9 6 14 20 13 12 0 22 4 22 9 0 5 -11 7
-25 5 -13 -3 -22 -1 -19 4 3 5 -5 7 -18 5 -12 -2 -17 -2 -9 0 12 4 12 6 0 15
-10 7 -9 8 6 3 11 -4 85 -29 165 -56 879 -302 1825 -424 2765 -358 759 53
1549 243 2242 540 63 27 120 46 125 42 7 -3 8 -1 4 5 -7 11 8 16 42 15 7 -1
10 2 7 6 -5 4 134 78 152 81 1 0 0 -7 -3 -15z m105 -79 c-10 -9 -69 -36 -69
-32 0 7 52 35 64 36 5 0 7 -2 5 -4z m1591 -20 c0 -2 -7 -9 -15 -16 -13 -11
-14 -10 -9 4 5 14 24 23 24 12z m0 -40 c0 -3 -4 -8 -10 -11 -5 -3 -10 -1 -10
4 0 6 5 11 10 11 6 0 10 -2 10 -4z m-35 -26 c-3 -5 -12 -10 -18 -10 -7 0 -6 4
3 10 19 12 23 12 15 0z m10 -24 c-17 -12 -45 -12 -45 1 0 3 7 3 15 0 8 -4 17
-2 20 3 4 6 11 10 18 10 6 0 2 -6 -8 -14z m-35 -20 c0 -2 -8 -10 -17 -17 -16
-13 -17 -12 -4 4 13 16 21 21 21 13z m-110 -82 c0 -8 -19 -13 -24 -6 -3 5 1 9
9 9 8 0 15 -2 15 -3z m-7030 -14 c-12 -8 -12 -10 -1 -10 8 0 12 -2 9 -5 -3 -3
-13 -2 -22 1 -14 5 -15 9 -4 15 7 5 18 9 23 9 6 0 3 -5 -5 -10z m-60 -44 c0
-2 -7 -7 -16 -10 -8 -3 -12 -2 -9 4 6 10 25 14 25 6z m6055 -306 c-3 -5 -12
-10 -18 -10 -7 0 -6 4 3 10 19 12 23 12 15 0z m-47 -23 c-9 -7 -31 -20 -48
-29 -17 -10 -29 -22 -25 -27 3 -6 -6 -8 -22 -5 -25 4 -26 3 -10 -10 24 -19 21
-26 -10 -27 -17 -1 -21 -3 -10 -6 20 -5 21 -16 6 -45 -9 -17 -8 -24 5 -33 21
-16 21 -45 0 -45 -12 0 -15 -7 -12 -24 4 -19 1 -23 -11 -19 -12 3 -12 2 2 -7
9 -6 15 -15 12 -21 -3 -5 1 -6 9 -3 9 3 13 10 10 16 -3 5 2 8 12 6 13 -2 19 3
18 14 -1 14 2 15 18 5 17 -11 6 -18 -94 -65 -730 -345 -1539 -578 -2363 -681
-555 -70 -1199 -79 -1760 -25 -619 59 -1322 214 -1860 409 -101 37 -146 62
-92 53 33 -6 35 0 5 11 -13 5 -28 5 -34 0 -8 -6 -14 -4 -18 6 -5 13 -10 14
-27 5 -11 -7 -23 -9 -27 -6 -3 3 0 6 8 6 9 0 10 3 1 13 -8 10 -7 14 4 14 8 0
11 -5 8 -10 -4 -6 0 -8 10 -4 9 3 19 2 22 -3 4 -6 11 -10 16 -10 6 0 7 4 4 10
-4 6 6 7 26 3 23 -4 30 -3 25 5 -4 7 -16 12 -27 12 -15 0 -18 4 -11 18 5 9 8
34 6 55 -2 34 0 37 25 37 26 -1 26 -1 4 -13 -16 -9 -20 -16 -13 -27 8 -13 10
-13 10 1 0 9 10 21 23 27 12 6 16 11 10 11 -7 1 -13 6 -13 12 0 6 9 8 20 4 30
-10 24 2 -11 19 -24 12 -28 12 -19 2 9 -11 7 -16 -10 -21 -12 -4 -24 -4 -27
-1 -4 3 2 6 13 7 18 0 18 1 -1 9 -14 6 -15 9 -5 10 9 0 3 7 -13 16 -55 30 -20
24 88 -15 63 -22 102 -41 94 -45 -8 -3 -5 -4 7 -1 11 3 41 -2 65 -11 24 -9
109 -36 189 -60 1342 -414 2815 -452 4180 -109 485 122 926 277 1391 490 77
35 139 60 139 57 0 -4 4 -2 8 4 6 10 80 53 92 53 3 0 -3 -5 -12 -12z m-58
-197 c0 -5 -5 -10 -11 -10 -5 0 -7 5 -4 10 3 6 8 10 11 10 2 0 4 -4 4 -10z
m-6270 -105 c0 -2 -7 -6 -16 -9 -8 -3 -12 -2 -9 4 3 6 -1 10 -9 10 -8 0 -17 4
-21 10 -3 5 7 5 25 -1 16 -6 30 -12 30 -14z m41 -23 c-7 -2 -18 1 -23 6 -8 8
-4 9 13 5 13 -4 18 -8 10 -11z m-54 -208 c-3 -3 -12 -4 -19 -1 -8 3 -5 6 6 6
11 1 17 -2 13 -5z"/>
<path d="M5680 15859 c0 -5 5 -7 10 -4 6 3 10 8 10 11 0 2 -4 4 -10 4 -5 0
-10 -5 -10 -11z"/>
<path d="M5660 15820 c-11 -7 -11 -10 -2 -10 8 0 10 -5 6 -12 -4 -7 -3 -9 1
-5 7 6 17 37 12 37 -1 0 -9 -5 -17 -10z"/>
<path d="M5780 15696 c0 -2 7 -7 16 -10 8 -3 12 -2 9 4 -6 10 -25 14 -25 6z"/>
<path d="M11706 15554 c-8 -22 -4 -25 11 -9 7 8 9 16 4 19 -5 3 -12 -1 -15
-10z"/>
<path d="M11645 15380 c-3 -6 1 -7 9 -4 18 7 21 14 7 14 -6 0 -13 -4 -16 -10z"/>
<path d="M5628 15653 c7 -3 16 -2 19 1 4 3 -2 6 -13 5 -11 0 -14 -3 -6 -6z"/>
<path d="M5988 15003 c7 -3 16 -2 19 1 4 3 -2 6 -13 5 -11 0 -14 -3 -6 -6z"/>
<path d="M5960 14905 c-14 -16 3 -30 24 -18 11 7 12 10 1 20 -10 10 -16 9 -25
-2z"/>
<path d="M5895 14870 c-3 -5 -2 -10 4 -10 5 0 13 5 16 10 3 6 2 10 -4 10 -5 0
-13 -4 -16 -10z"/>
<path d="M11332 14724 c9 -9 21 -15 27 -13 6 2 -2 10 -17 17 -25 11 -25 11
-10 -4z"/>
<path d="M11250 14650 c8 -5 22 -9 30 -9 10 0 8 3 -5 9 -27 12 -43 12 -25 0z"/>
<path d="M13140 14676 c7 -7 13 -7 20 0 6 6 3 10 -10 10 -13 0 -16 -4 -10 -10z"/>
<path d="M13156 14642 c-2 -4 -1 -14 5 -22 7 -12 9 -10 9 8 0 23 -5 28 -14 14z"/>
<path d="M13230 14605 c-7 -9 -8 -15 -2 -15 5 0 12 7 16 15 3 8 4 15 2 15 -2
0 -9 -7 -16 -15z"/>
<path d="M13113 14481 c-13 -21 0 -31 35 -31 15 1 15 2 -1 11 -14 8 -16 14 -6
25 9 11 8 14 -2 14 -8 0 -20 -9 -26 -19z"/>
<path d="M13160 14421 c0 -16 28 -33 35 -21 4 6 4 14 1 17 -3 4 -6 1 -6 -6 0
-7 -5 -9 -10 -6 -6 4 -8 11 -5 16 4 5 1 9 -4 9 -6 0 -11 -4 -11 -9z"/>
<path d="M13225 14390 c-8 -13 3 -30 18 -30 8 0 7 3 -2 9 -7 5 -10 14 -7 20 4
6 5 11 2 11 -3 0 -8 -4 -11 -10z"/>
<path d="M15580 11650 c6 -11 13 -20 16 -20 2 0 0 9 -6 20 -6 11 -13 20 -16
20 -2 0 0 -9 6 -20z"/>
<path d="M15600 11521 c0 -11 3 -22 8 -25 11 -6 47 23 38 31 -4 5 -14 -1 -23
-12 -15 -20 -15 -20 -8 3 4 13 2 22 -4 22 -6 0 -11 -9 -11 -19z"/>
<path d="M15601 11434 c0 -11 3 -14 6 -6 3 7 2 16 -1 19 -3 4 -6 -2 -5 -13z"/>
<path d="M15621 11024 c0 -11 3 -14 6 -6 3 7 2 16 -1 19 -3 4 -6 -2 -5 -13z"/>
<path d="M12665 13890 c-3 -5 -1 -10 4 -10 6 0 11 5 11 10 0 6 -2 10 -4 10 -3
0 -8 -4 -11 -10z"/>
<path d="M12741 13837 c2 -1 13 -9 24 -17 19 -14 19 -14 6 3 -7 9 -18 17 -24
17 -6 0 -8 -1 -6 -3z"/>
<path d="M12667 13769 c7 -7 15 -10 18 -7 3 3 -2 9 -12 12 -14 6 -15 5 -6 -5z"/>
<path d="M14780 11180 c6 -11 15 -20 21 -20 6 0 6 7 -1 20 -6 11 -15 20 -21
20 -6 0 -6 -7 1 -20z"/>
<path d="M14750 11055 c0 -5 9 -23 20 -40 11 -16 20 -25 20 -20 0 6 -9 24 -20
40 -11 17 -20 26 -20 20z"/>
<path d="M7355 12410 c10 -11 20 -20 23 -20 3 0 -3 9 -13 20 -10 11 -20 20
-23 20 -3 0 3 -9 13 -20z"/>
<path d="M6774 12308 c-33 -35 -74 -83 -91 -108 -33 -49 -85 -151 -80 -156 1
-2 30 43 64 99 34 56 87 130 118 165 31 34 55 62 52 62 -2 0 -31 -28 -63 -62z"/>
<path d="M8020 12081 c-25 -3 48 -6 162 -6 115 0 208 3 208 8 0 8 -303 7 -370
-2z"/>
<path d="M7935 12070 c-18 -8 -17 -9 8 -9 15 -1 27 4 27 9 0 12 -8 12 -35 0z"/>
<path d="M8438 12073 c18 -2 45 -2 60 0 15 2 0 4 -33 4 -33 0 -45 -2 -27 -4z"/>
<path d="M7888 12063 c7 -3 16 -2 19 1 4 3 -2 6 -13 5 -11 0 -14 -3 -6 -6z"/>
<path d="M8543 12063 c9 -2 25 -2 35 0 9 3 1 5 -18 5 -19 0 -27 -2 -17 -5z"/>
<path d="M7848 12053 c7 -3 16 -2 19 1 4 3 -2 6 -13 5 -11 0 -14 -3 -6 -6z"/>
<path d="M8623 12053 c9 -2 23 -2 30 0 6 3 -1 5 -18 5 -16 0 -22 -2 -12 -5z"/>
<path d="M8670 12046 c0 -2 13 -6 29 -8 17 -2 28 -1 25 4 -5 8 -54 12 -54 4z"/>
<path d="M10260 11000 c0 -5 5 -10 11 -10 5 0 7 5 4 10 -3 6 -8 10 -11 10 -2
0 -4 -4 -4 -10z"/>
<path d="M9855 9120 c-4 -6 -10 -8 -15 -5 -5 3 -11 1 -14 -4 -8 -13 22 -7 36
7 7 7 9 12 6 12 -4 0 -10 -5 -13 -10z"/>
<path d="M9805 9079 c-11 -16 -1 -19 13 -3 7 8 8 14 3 14 -5 0 -13 -5 -16 -11z"/>
<path d="M9760 9041 c0 -7 -4 -9 -10 -6 -5 3 -10 1 -10 -4 0 -6 -7 -11 -15
-11 -8 0 -15 -4 -15 -8 0 -20 13 -18 37 4 14 13 23 27 20 31 -4 3 -7 1 -7 -6z"/>
<path d="M7550 11826 c0 -2 7 -7 16 -10 8 -3 12 -2 9 4 -6 10 -25 14 -25 6z"/>
<path d="M9431 11574 c0 -11 3 -14 6 -6 3 7 2 16 -1 19 -3 4 -6 -2 -5 -13z"/>
<path d="M7816 10903 c-6 -14 -5 -15 5 -6 7 7 10 15 7 18 -3 3 -9 -2 -12 -12z"/>
<path d="M7834 10889 c-3 -6 -2 -15 3 -20 5 -5 9 -1 9 11 0 23 -2 24 -12 9z"/>
<path d="M7826 10642 c-3 -5 1 -9 9 -9 8 0 12 4 9 9 -3 4 -7 8 -9 8 -2 0 -6
-4 -9 -8z"/>
<path d="M8438 10583 c-10 -2 -18 -8 -18 -13 0 -8 57 4 68 15 6 6 -25 5 -50
-2z"/>
<path d="M11374 10215 c0 -60 1 -84 3 -52 2 32 2 81 0 110 -2 29 -3 3 -3 -58z"/>
<path d="M10655 9110 c3 -5 8 -10 11 -10 2 0 4 5 4 10 0 6 -5 10 -11 10 -5 0
-7 -4 -4 -10z"/>
<path d="M10833 9085 c-6 -7 -9 -16 -6 -19 4 -3 2 -6 -3 -6 -6 0 -19 -7 -30
-15 -17 -13 -16 -14 14 -4 17 6 32 17 32 24 0 7 5 15 12 17 7 3 8 7 3 10 -6 3
-15 0 -22 -7z"/>
<path d="M4296 9065 c-11 -8 -15 -15 -9 -15 6 0 16 7 23 15 16 19 11 19 -14 0z"/>
<path d="M5225 9100 c3 -5 11 -10 16 -10 6 0 7 5 4 10 -3 6 -11 10 -16 10 -6
0 -7 -4 -4 -10z"/>
<path d="M5300 9068 c26 -21 44 -24 37 -5 -2 6 -12 11 -22 9 -9 -2 -15 1 -11
6 3 5 -2 9 -11 9 -12 0 -11 -5 7 -19z"/>
<path d="M5370 9043 c0 -4 36 -27 80 -51 44 -23 80 -41 80 -38 0 3 -100 64
-152 93 -5 2 -8 1 -8 -4z"/>
<path d="M5540 8946 c0 -3 9 -10 20 -16 11 -6 20 -8 20 -6 0 3 -9 10 -20 16
-11 6 -20 8 -20 6z"/>
<path d="M5595 8913 c6 -6 28 -20 50 -32 22 -13 31 -15 20 -6 -22 18 -86 53
-70 38z"/>
<path d="M5740 8826 c0 -3 9 -10 20 -16 11 -6 20 -8 20 -6 0 3 -9 10 -20 16
-11 6 -20 8 -20 6z"/>
<path d="M5840 8766 c0 -3 14 -12 30 -21 17 -9 30 -13 30 -11 0 3 -13 12 -30
21 -16 9 -30 13 -30 11z"/>
<path d="M5957 8699 c7 -7 15 -10 18 -7 3 3 -2 9 -12 12 -14 6 -15 5 -6 -5z"/>
<path d="M11886 9135 c10 -8 23 -15 28 -15 6 0 1 7 -10 15 -10 8 -23 15 -28
15 -6 0 -1 -7 10 -15z"/>
<path d="M11151 9101 c-1 -8 -4 -12 -7 -8 -3 3 -22 -4 -42 -15 -80 -45 -172
-101 -172 -105 0 -8 145 71 153 84 4 7 14 10 22 7 8 -4 15 -1 15 6 0 6 4 9 8
6 13 -8 35 11 29 25 -4 12 -6 11 -6 0z"/>
<path d="M11954 9101 c7 -11 46 -35 46 -28 0 3 -12 12 -26 22 -15 9 -23 12
-20 6z"/>
<path d="M12059 9018 c25 -26 47 -45 50 -43 2 3 2 6 0 8 -2 1 -24 20 -49 42
l-45 40 44 -47z"/>
<path d="M10888 8954 c-38 -20 -36 -28 2 -9 17 9 30 18 30 20 0 7 -1 6 -32
-11z"/>
<path d="M10787 8896 c-48 -29 -61 -43 -22 -23 31 16 74 46 65 46 -3 0 -22
-10 -43 -23z"/>
<path d="M10623 8797 c-73 -44 -109 -70 -63 -47 37 19 140 82 140 86 0 7 -3 5
-77 -39z"/>
<path d="M12109 9067 c19 -20 37 -35 39 -32 5 4 -8 18 -48 50 -15 11 -10 4 9
-18z"/>
<path d="M4632 9088 c2 -6 11 -13 19 -16 12 -3 12 -2 0 6 -11 8 -10 11 5 15
16 4 15 5 -4 6 -14 1 -22 -4 -20 -11z"/>
<path d="M4768 9093 c7 -3 16 -2 19 1 4 3 -2 6 -13 5 -11 0 -14 -3 -6 -6z"/>
<path d="M4868 9093 c7 -3 16 -2 19 1 4 3 -2 6 -13 5 -11 0 -14 -3 -6 -6z"/>
<path d="M4688 9073 c7 -3 16 -2 19 1 4 3 -2 6 -13 5 -11 0 -14 -3 -6 -6z"/>
<path d="M4580 9056 c6 -6 5 -15 -1 -23 -20 -23 -3 -14 18 11 l21 24 -24 -2
c-14 0 -19 -5 -14 -10z"/>
<path d="M11548 9103 c7 -3 16 -2 19 1 4 3 -2 6 -13 5 -11 0 -14 -3 -6 -6z"/>
<path d="M11748 9103 c7 -3 16 -2 19 1 4 3 -2 6 -13 5 -11 0 -14 -3 -6 -6z"/>
<path d="M11500 7880 c-7 -22 -10 -43 -7 -47 4 -3 2 -12 -4 -20 -8 -9 -8 -13
0 -13 7 0 8 -8 1 -25 -6 -17 -6 -25 1 -25 6 0 8 -4 5 -9 -3 -5 1 -26 8 -47 14
-37 15 -33 15 94 1 72 -1 132 -2 132 -2 0 -10 -18 -17 -40z"/>
<path d="M11252 7486 c-2 -114 -7 -104 58 -122 13 -3 15 12 13 103 -2 111 -6
123 -49 123 -19 0 -20 -6 -22 -104z"/>
<path d="M5914 7921 c4 -5 3 -11 -1 -13 -5 -1 -7 -193 -5 -426 1 -259 6 -421
12 -417 5 3 3 -7 -5 -22 -13 -25 -13 -29 3 -35 43 -17 42 -31 42 457 l0 465
-26 0 c-14 0 -23 -4 -20 -9z"/>
<path d="M6992 7680 c0 -19 2 -27 5 -17 2 9 2 25 0 35 -3 9 -5 1 -5 -18z"/>
<path d="M6994 7535 c0 -60 1 -84 3 -52 2 32 2 81 0 110 -2 29 -3 3 -3 -58z"/>
<path d="M6993 7370 c0 -30 2 -43 4 -27 2 15 2 39 0 55 -2 15 -4 2 -4 -28z"/>
<path d="M6991 7294 c0 -11 3 -14 6 -6 3 7 2 16 -1 19 -3 4 -6 -2 -5 -13z"/>
<path d="M6919 7063 c-13 -16 -12 -17 4 -4 16 13 21 21 13 21 -2 0 -10 -8 -17
-17z"/>
<path d="M6636 6992 c-3 -5 19 -10 49 -11 33 -1 55 2 55 8 0 13 -96 15 -104 3z"/>
<path d="M7918 7932 c-24 -3 -28 -8 -28 -34 0 -17 10 -46 22 -66 12 -19 27
-51 34 -71 12 -34 13 -30 14 66 0 56 -3 103 -7 105 -5 2 -20 2 -35 0z"/>
<path d="M7642 7507 l-42 -12 45 -21 46 -21 -3 21 c-1 12 1 27 5 34 9 14 6 14
-51 -1z"/>
<path d="M8570 7916 c24 -8 46 -13 49 -11 9 10 -8 17 -51 21 l-43 4 45 -14z"/>
<path d="M8410 7714 l0 -197 75 6 c85 6 139 29 169 70 17 23 21 43 21 110 -1
85 -14 125 -52 160 -20 17 -134 47 -185 47 l-28 0 0 -196z"/>
<path d="M8818 7829 c4 -11 5 -47 2 -80 -3 -33 -3 -80 0 -106 5 -43 6 -44 22
-27 42 47 49 116 18 180 -22 44 -56 71 -42 33z"/>
<path d="M8560 7508 c-19 -6 -30 -12 -25 -14 6 -1 26 -7 45 -12 33 -8 35 -7
35 14 0 26 -4 27 -55 12z"/>
<path d="M8410 7247 l0 -223 68 7 c115 13 157 27 194 69 19 20 32 43 30 50 -3
7 0 10 7 6 7 -5 11 9 13 46 2 99 -6 163 -21 153 -5 -2 -12 6 -15 20 -14 55
-104 95 -213 95 l-63 0 0 -223z"/>
<path d="M8575 7020 c-17 -7 -15 -9 12 -9 17 -1 35 4 38 9 7 12 -22 12 -50 0z"/>
<path d="M10668 7932 c-26 -5 -23 -54 7 -98 13 -20 27 -51 31 -70 3 -19 11
-37 17 -41 7 -4 8 0 4 11 -4 10 -7 60 -7 111 0 100 1 98 -52 87z"/>
<path d="M10405 7507 l-41 -12 43 -21 c24 -12 44 -18 45 -15 4 19 4 61 -1 60
-3 -1 -24 -6 -46 -12z"/>
<path d="M9323 6471 c0 -22 4 -38 8 -35 5 3 6 -2 3 -10 -3 -9 -7 -116 -8 -238
-1 -123 -6 -234 -11 -248 l-8 -25 19 20 c10 12 15 15 10 8 -5 -8 -4 -24 3 -40
11 -23 10 -25 -3 -13 -9 7 -16 11 -16 9 0 -5 85 -257 95 -280 5 -13 -2 -18
-37 -23 -75 -11 -80 -26 -10 -26 l63 0 18 -42 18 -43 5 32 c2 18 0 29 -4 27
-5 -4 -8 110 -6 264 3 160 0 268 -5 265 -5 -3 -4 4 2 15 9 17 3 43 -28 134
-42 123 -100 281 -105 286 -2 1 -3 -15 -3 -37z"/>
<path d="M9135 5993 c-32 -87 -67 -178 -78 -203 -11 -25 -20 -48 -19 -52 1 -5
-3 -8 -9 -8 -6 0 -9 -7 -5 -15 3 -8 1 -15 -4 -15 -6 0 -9 -3 -8 -7 0 -5 -7
-25 -16 -47 -9 -21 -16 -40 -14 -42 2 -2 33 1 68 6 36 5 127 10 203 10 76 0
137 4 135 8 -1 5 -43 124 -93 265 -49 141 -92 257 -96 257 -3 0 -32 -71 -64
-157z"/>
<path d="M9350 5135 c0 -12 13 -15 61 -15 81 0 77 24 -4 28 -46 2 -57 0 -57
-13z"/>
<path d="M10856 6543 c-6 -7 82 -35 116 -36 9 -1 15 -4 12 -8 -2 -4 2 -9 10
-12 9 -4 12 0 9 12 -8 31 -124 66 -147 44z"/>
<path d="M10856 5615 c8 -20 111 -20 138 0 18 14 12 15 -62 15 -68 0 -80 -2
-76 -15z"/>
<path d="M10981 5197 c-12 -13 -43 -34 -70 -46 -62 -30 -65 -56 -6 -47 51 6
91 24 93 39 5 33 9 77 7 77 -1 0 -11 -11 -24 -23z"/>
<path d="M13315 6546 c17 -7 47 -16 68 -20 21 -4 44 -9 51 -12 7 -3 13 2 13
10 0 20 -49 36 -111 36 -51 -1 -51 -1 -21 -14z"/>
<path d="M13155 6496 c-22 -7 -54 -20 -71 -29 -17 -9 -34 -14 -36 -11 -9 9
-60 -59 -84 -111 -42 -92 -49 -167 -49 -525 0 -371 5 -416 57 -519 37 -73 93
-119 177 -147 70 -22 204 -15 284 15 50 20 163 101 140 101 -4 0 -3 4 3 8 52
34 84 256 84 582 0 343 -25 468 -107 547 -77 73 -139 98 -258 100 -62 2 -115
-2 -140 -11z"/>
<path d="M13381 5130 c-72 -19 -93 -40 -39 -39 53 1 111 22 114 42 1 9 -1 16
-4 16 -4 -1 -36 -9 -71 -19z"/>
<path d="M3390 6515 c9 -11 31 -15 79 -14 36 0 60 3 53 6 -6 2 -10 9 -6 14 3
5 -26 9 -67 9 -62 0 -70 -2 -59 -15z"/>
<path d="M3192 6189 l3 -294 149 2 c161 3 239 18 271 53 10 11 22 17 28 13 6
-3 7 -1 3 5 -4 7 -2 12 4 12 6 0 8 5 5 10 -3 6 -2 10 4 10 24 0 43 110 39 229
-4 140 -18 173 -85 216 l-48 30 -188 4 -187 3 2 -293z"/>
<path d="M3827 6219 c1 -116 5 -214 8 -217 3 -4 3 2 0 13 -6 16 -5 17 4 5 8
-11 7 -18 -6 -27 -9 -7 -14 -15 -12 -18 12 -12 80 61 106 113 37 76 37 145 -1
228 -27 59 -71 114 -90 114 -8 0 -10 -67 -9 -211z"/>
<path d="M3415 5870 l-40 -6 28 -12 c16 -7 48 -12 73 -12 37 0 44 3 44 20 0
22 -24 24 -105 10z"/>
<path d="M3194 5821 c-2 -2 -4 -150 -4 -329 l0 -324 178 4 c150 4 184 7 222
25 113 51 143 112 144 298 1 121 -15 185 -59 245 -14 19 -25 31 -25 27 0 -3
-26 6 -57 20 -53 25 -72 27 -226 32 -93 3 -171 4 -173 2z"/>
<path d="M3390 5135 c0 -12 14 -15 63 -15 50 0 64 3 64 15 0 12 -14 15 -64 15
-49 0 -63 -3 -63 -15z"/>
<path d="M4934 6515 c26 -20 110 -20 126 0 11 13 3 15 -66 15 -72 -1 -77 -2
-60 -15z"/>
<path d="M5050 5911 c0 -11 -92 -51 -122 -52 -22 0 -22 -1 -3 -9 l20 -9 -20
-1 c-11 -1 5 -9 35 -19 30 -9 65 -23 77 -29 20 -11 21 -10 20 31 0 24 3 48 7
55 4 7 3 12 -3 12 -6 0 -8 7 -5 15 4 8 3 15 0 15 -3 0 -6 -4 -6 -9z"/>
<path d="M4932 5135 c-11 -13 -4 -15 58 -15 53 0 71 3 68 13 -7 19 -110 21
-126 2z"/>
<path d="M6430 6515 c7 -8 21 -15 31 -15 11 0 19 7 19 15 0 10 -10 15 -31 15
-27 0 -30 -2 -19 -15z"/>
<path d="M6426 5135 c-4 -13 7 -15 67 -14 40 0 66 3 59 6 -6 2 -10 9 -6 14 3
5 -21 9 -54 9 -44 0 -61 -4 -66 -15z"/>
<path d="M7850 6515 c7 -8 21 -15 31 -15 11 0 19 7 19 15 0 10 -10 15 -31 15
-27 0 -30 -2 -19 -15z"/>
<path d="M7854 5141 c4 -5 0 -12 -6 -14 -7 -3 17 -6 55 -6 53 -1 67 2 67 14 0
12 -13 15 -61 15 -34 0 -58 -4 -55 -9z"/>
<path d="M12055 5825 l0 -705 37 0 37 0 1 705 0 705 -37 0 -38 0 0 -705z"/>
<path d="M14772 5717 c-1 -6 -4 -28 -7 -47 -4 -29 -3 -31 4 -10 8 22 9 19 11
-20 l2 -45 8 40 c5 23 4 45 -1 52 -6 7 -6 12 2 15 8 3 7 7 -3 16 -11 9 -15 9
-16 -1z"/>
<path d="M14755 5459 c-4 -6 -4 -13 -1 -16 3 -4 6 -1 6 6 0 7 5 9 12 5 7 -4 8
-3 4 4 -9 15 -13 15 -21 1z"/>
<path d="M12706 2932 c-3 -5 1 -9 9 -9 8 0 12 4 9 9 -3 4 -7 8 -9 8 -2 0 -6
-4 -9 -8z"/>
<path d="M12682 2906 c7 -8 15 -12 17 -11 5 6 -10 25 -20 25 -5 0 -4 -6 3 -14z"/>
<path d="M12630 2881 c0 -5 5 -13 10 -16 6 -3 10 -2 10 4 0 5 -4 13 -10 16 -5
3 -10 2 -10 -4z"/>
<path d="M12736 2868 c3 -4 11 -5 19 -1 21 7 19 12 -4 10 -11 0 -18 -5 -15 -9z"/>
<path d="M12601 2856 c-9 -10 -8 -16 3 -25 12 -10 13 -8 9 10 -5 17 -3 20 7
14 9 -5 11 -4 6 3 -9 15 -11 15 -25 -2z"/>
<path d="M12650 2790 c-8 -5 -10 -10 -5 -10 6 0 17 5 25 10 8 5 11 10 5 10 -5
0 -17 -5 -25 -10z"/>
<path d="M15580 5505 c0 -5 5 -17 10 -25 5 -8 10 -10 10 -5 0 6 -5 17 -10 25
-5 8 -10 11 -10 5z"/>
<path d="M13286 2163 c-6 -14 -5 -15 5 -6 7 7 10 15 7 18 -3 3 -9 -2 -12 -12z"/>
<path d="M13217 2099 c7 -7 15 -10 18 -7 3 3 -2 9 -12 12 -14 6 -15 5 -6 -5z"/>
<path d="M13210 2065 c-7 -9 -11 -17 -9 -20 3 -2 10 5 17 15 14 24 10 26 -8 5z"/>
<path d="M6068 1723 c7 -3 16 -2 19 1 4 3 -2 6 -13 5 -11 0 -14 -3 -6 -6z"/>
<path d="M11676 1324 c-5 -13 -3 -14 6 -7 7 6 20 13 28 16 10 4 8 6 -6 6 -12
1 -25 -6 -28 -15z"/>
<path d="M5740 1010 c-9 -6 -10 -10 -3 -10 6 0 15 5 18 10 8 12 4 12 -15 0z"/>
</g>
</svg>
